<svg xmlns="http://www.w3.org/2000/svg" viewBox="0 0 800 450"><rect width="800" height="450" fill="#f3f5f0"/><rect x="0" y="0" width="800" height="6" fill="#5f7f1f"/><rect x="40" y="18" width="181.6" height="46" rx="23" fill="#ffffff" stroke="#e0d9cc"/><svg x="49" y="26" width="30" height="30" viewBox="0 0 96 96">
<g clip-path="url(#v245-clip0_4303_1230)">
<g clip-path="url(#v245-clip1_4303_1230)">
<path d="M52.5093 3C55.3657 3 58.0858 4.22148 59.9834 6.35636L82.6577 31.8649C88.9106 38.8995 85.0005 50.0661 75.7251 51.6632L21.5 61L28.2997 53.3134C30.9819 50.2813 30.9765 45.7235 28.287 42.6979L7.79435 19.6436C2.06189 13.1946 6.63995 3 15.2684 3H52.5093Z" fill="url(#v245-paint0_linear_4303_1230)"/>
<path d="M15.2684 93C6.63995 93 2.0619 82.8054 7.79436 76.3563L59.0945 18.6436C62.4624 14.8548 62.4624 9.14522 59.0945 5.35636L57 3L91.0945 41.3564C94.4624 45.1453 94.4624 50.8548 91.0945 54.6437L59.9834 89.6436C58.0858 91.7785 55.3657 93 52.5093 93H15.2684Z" fill="url(#v245-paint1_linear_4303_1230)"/>
<path d="M15.2684 93C6.63995 93 2.0619 82.8054 7.79436 76.3563L59.0945 18.6436C62.4624 14.8548 62.4624 9.14522 59.0945 5.35636L57 3L91.0945 41.3564C94.4624 45.1453 94.4624 50.8548 91.0945 54.6437L59.9834 89.6436C58.0858 91.7785 55.3657 93 52.5093 93H15.2684Z" fill="url(#v245-paint2_linear_4303_1230)"/>
<path d="M38.3611 93C33.184 93 30.4371 86.8833 33.8766 83.0139L75.0945 36.6436C78.4624 32.8548 78.4624 27.1452 75.0945 23.3563L71 18.75L91.0945 41.3563C94.4624 45.1452 94.4624 50.8547 91.0946 54.6436L59.9834 89.6437C58.0858 91.7785 55.3657 93 52.5093 93H38.3611Z" fill="url(#v245-paint3_linear_4303_1230)"/>
</g>
</g>
<defs>
<linearGradient id="v245-paint0_linear_4303_1230" x1="48" y1="31.5" x2="14" y2="-2.50001" gradientUnits="userSpaceOnUse">
<stop stop-color="#102784"/>
<stop offset="0.274053" stop-color="#1B44B1"/>
<stop offset="1" stop-color="#2764E7"/>
</linearGradient>
<linearGradient id="v245-paint1_linear_4303_1230" x1="76.5" y1="25" x2="11.5" y2="91.5" gradientUnits="userSpaceOnUse">
<stop stop-color="#0FAFFF"/>
<stop offset="0.177827" stop-color="#4894FE"/>
<stop offset="1" stop-color="#2764E7"/>
</linearGradient>
<linearGradient id="v245-paint2_linear_4303_1230" x1="28.5" y1="72" x2="38.5" y2="83.5" gradientUnits="userSpaceOnUse">
<stop stop-color="#2764E7" stop-opacity="0"/>
<stop offset="1" stop-color="#2052CB"/>
</linearGradient>
<linearGradient id="v245-paint3_linear_4303_1230" x1="89" y1="38.5" x2="43" y2="90.5" gradientUnits="userSpaceOnUse">
<stop stop-color="#6CE0FF"/>
<stop offset="0.211723" stop-color="#66C0FF"/>
<stop offset="1" stop-color="#58AAFE"/>
</linearGradient>
<clipPath id="v245-clip0_4303_1230">
<rect width="96" height="96" fill="white"/>
</clipPath>
<clipPath id="v245-clip1_4303_1230">
<rect width="96" height="96" fill="white"/>
</clipPath>
</defs>
</svg><text x="88" y="47" font-family="Segoe UI, Helvetica Neue, Arial, sans-serif" font-size="15" font-weight="600" fill="#1d1a16">Power Automate</text><rect x="231.6" y="18" width="139.6" height="46" rx="23" fill="#ffffff" stroke="#e0d9cc"/><svg x="240.6" y="26" width="30" height="30" viewBox="0 0 96 96">
<g clip-path="url(#v246-clip0_4303_1230)">
<g clip-path="url(#v246-clip1_4303_1230)">
<g clip-path="url(#v246-clip2_4303_1230)">
<path d="M13.8776 21.8242C29.1033 8.13791 49.7501 8.1861 62.955 18.9134C74.9816 28.6836 77.4697 44.3159 70.851 55.7801C64.2321 67.2443 52.5277 70.1455 39.5011 62.6247L31.7286 76.087L31.7234 76.0862C27.4181 83.5324 17.8937 86.0828 10.4437 81.7817C7.45394 80.0556 5.25322 77.4879 3.96665 74.551L3.96096 74.5511C-4.07832 55.7804 0.200745 34.1184 13.8776 21.8242Z" fill="url(#v246-paint0_radial_4303_1230)"/>
<path d="M13.8776 21.8242C29.1033 8.13791 49.7501 8.1861 62.955 18.9134C74.9816 28.6836 77.4697 44.3159 70.851 55.7801C64.2321 67.2443 52.5277 70.1455 39.5011 62.6247L31.7286 76.087L31.7234 76.0862C27.4181 83.5324 17.8937 86.0828 10.4437 81.7817C7.45394 80.0556 5.25322 77.4879 3.96665 74.551L3.96096 74.5511C-4.07832 55.7804 0.200745 34.1184 13.8776 21.8242Z" fill="url(#v246-paint1_radial_4303_1230)" fill-opacity="0.8"/>
<path d="M85.4327 14.2231C88.4528 15.9668 90.6686 18.569 91.9494 21.5433L91.9533 21.5444C99.9406 40.2943 95.6533 61.9068 81.9983 74.1814C66.7726 87.8677 46.1257 87.8196 32.9209 77.0923C20.8945 67.3221 18.4062 51.6897 25.0249 40.2256C31.6438 28.7614 43.3482 25.8601 56.3748 33.381L64.1434 19.9255L64.1482 19.9249C68.4516 12.4736 77.9805 9.92084 85.4327 14.2231Z" fill="url(#v246-paint2_radial_4303_1230)"/>
<path d="M85.4327 14.2231C88.4528 15.9668 90.6686 18.569 91.9494 21.5433L91.9533 21.5444C99.9406 40.2943 95.6533 61.9068 81.9983 74.1814C66.7726 87.8677 46.1257 87.8196 32.9209 77.0923C20.8945 67.3221 18.4062 51.6897 25.0249 40.2256C31.6438 28.7614 43.3482 25.8601 56.3748 33.381L64.1434 19.9255L64.1482 19.9249C68.4516 12.4736 77.9805 9.92084 85.4327 14.2231Z" fill="url(#v246-paint3_radial_4303_1230)" fill-opacity="0.9"/>
<path d="M39.5041 62.6261C52.5307 70.1469 64.2352 67.2456 70.8541 55.7814C77.2488 44.7055 75.1426 29.7389 64.147 19.9271L56.3791 33.3814L39.5041 62.6261Z" fill="url(#v246-paint4_radial_4303_1230)"/>
<path d="M56.3794 33.3815C43.3528 25.8607 31.6482 28.762 25.0294 40.2262C18.6347 51.3021 20.7409 66.2687 31.7364 76.0806L39.5043 62.6262L56.3794 33.3815Z" fill="url(#v246-paint5_radial_4303_1230)"/>
<path d="M33.3215 56.4453C37.9837 64.5204 48.3094 67.2872 56.3846 62.625C64.4598 57.9628 67.2266 47.6371 62.5643 39.5619C57.9021 31.4867 47.5764 28.72 39.5013 33.3822C31.4261 38.0444 28.6593 48.3701 33.3215 56.4453Z" fill="url(#v246-paint6_radial_4303_1230)"/>
</g>
</g>
</g>
<defs>
<radialGradient id="v246-paint0_radial_4303_1230" cx="0" cy="0" r="1" gradientUnits="userSpaceOnUse" gradientTransform="translate(46.0001 49.4996) rotate(-148.717) scale(46.2195 47.5359)">
<stop offset="0.465088" stop-color="#09442A"/>
<stop offset="0.70088" stop-color="#136C6C"/>
<stop offset="1" stop-color="#22918B"/>
</radialGradient>
<radialGradient id="v246-paint1_radial_4303_1230" cx="0" cy="0" r="1" gradientUnits="userSpaceOnUse" gradientTransform="translate(50.0001 32.4996) rotate(123.57) scale(66.0095 46.5498)">
<stop offset="0.718705" stop-color="#1A7F7C" stop-opacity="0"/>
<stop offset="1" stop-color="#16BBDA"/>
</radialGradient>
<radialGradient id="v246-paint2_radial_4303_1230" cx="0" cy="0" r="1" gradientUnits="userSpaceOnUse" gradientTransform="translate(50.4999 44.5001) rotate(30.75) scale(45.9618 44.5095)">
<stop offset="0.358097" stop-color="#136C6C"/>
<stop offset="0.789474" stop-color="#42B870"/>
<stop offset="1" stop-color="#76D45E"/>
</radialGradient>
<radialGradient id="v246-paint3_radial_4303_1230" cx="0" cy="0" r="1" gradientTransform="matrix(42.5 -36.0002 31.1824 36.8127 49.4998 55.5001)" gradientUnits="userSpaceOnUse">
<stop offset="0.583166" stop-color="#76D45E" stop-opacity="0"/>
<stop offset="1" stop-color="#C8F5B7"/>
</radialGradient>
<radialGradient id="v246-paint4_radial_4303_1230" cx="0" cy="0" r="1" gradientUnits="userSpaceOnUse" gradientTransform="translate(47.5 48) rotate(-58.9042) scale(32.6898)">
<stop offset="0.486266" stop-color="#22918B"/>
<stop offset="0.729599" stop-color="#42B870"/>
<stop offset="1" stop-color="#43E5CA"/>
</radialGradient>
<radialGradient id="v246-paint5_radial_4303_1230" cx="0" cy="0" r="1" gradientUnits="userSpaceOnUse" gradientTransform="translate(47.3833 49.0077) rotate(119.859) scale(31.1328 29.4032)">
<stop offset="0.459553" stop-color="#08494E"/>
<stop offset="0.742242" stop-color="#1A7F7C"/>
<stop offset="1" stop-color="#309C61"/>
</radialGradient>
<radialGradient id="v246-paint6_radial_4303_1230" cx="0" cy="0" r="1" gradientUnits="userSpaceOnUse" gradientTransform="translate(52.5 40) rotate(120.784) scale(27.3542)">
<stop stop-color="#C8F5B7"/>
<stop offset="0.24583" stop-color="#98F0B0"/>
<stop offset="0.643961" stop-color="#52D17C"/>
<stop offset="1" stop-color="#119FC5"/>
</radialGradient>
<clipPath id="v246-clip0_4303_1230">
<rect width="96" height="96" fill="white"/>
</clipPath>
<clipPath id="v246-clip1_4303_1230">
<rect width="96" height="96" fill="white"/>
</clipPath>
<clipPath id="v246-clip2_4303_1230">
<rect width="95.9998" height="96" fill="white"/>
</clipPath>
</defs>
</svg><text x="279.6" y="47" font-family="Segoe UI, Helvetica Neue, Arial, sans-serif" font-size="15" font-weight="600" fill="#1d1a16">Dataverse</text><text x="760" y="47" font-family="Segoe UI, Helvetica Neue, Arial, sans-serif" font-size="13" font-weight="700" fill="#49611a" text-anchor="end" letter-spacing="2">INTERVIEW Q&amp;A</text><text x="40" y="132" font-family="Georgia, Times New Roman, serif" font-size="64" font-weight="700" fill="#5f7f1f">34</text><text x="40" y="162" font-family="Segoe UI, Helvetica Neue, Arial, sans-serif" font-size="16" font-weight="600" fill="#49611a">questions</text><text x="40" y="184" font-family="Segoe UI, Helvetica Neue, Arial, sans-serif" font-size="16" font-weight="600" fill="#49611a">with answers</text><text x="210" y="118" font-family="Consolas, SF Mono, Menlo, monospace" font-size="17" font-weight="700" fill="#d26a3c">Q1</text><text x="262" y="118" font-family="Georgia, Times New Roman, serif" font-size="21" fill="#1d1a16">Types of flows?</text><line x1="210" y1="182" x2="760" y2="182" stroke="#c6d8a2" stroke-width="1.5"/><text x="210" y="222" font-family="Consolas, SF Mono, Menlo, monospace" font-size="17" font-weight="700" fill="#d26a3c">Q2</text><text x="262" y="222" font-family="Georgia, Times New Roman, serif" font-size="21" fill="#1d1a16">How is Power Automate related to Logic Apps?</text><line x1="210" y1="286" x2="760" y2="286" stroke="#c6d8a2" stroke-width="1.5"/><text x="210" y="326" font-family="Consolas, SF Mono, Menlo, monospace" font-size="17" font-weight="700" fill="#d26a3c">Q3</text><text x="262" y="326" font-family="Georgia, Times New Roman, serif" font-size="21" fill="#1d1a16">Run history retention?</text><line x1="185" y1="88" x2="185" y2="392" stroke="#c6d8a2" stroke-width="1.5"/></svg>