<svg xmlns="http://www.w3.org/2000/svg" viewBox="0 0 800 450"><rect width="800" height="450" fill="#f5f3f0"/><rect x="0" y="0" width="800" height="6" fill="#a8781a"/><rect x="40" y="18" width="206.8" height="46" rx="23" fill="#ffffff" stroke="#e0d9cc"/><rect x="49" y="26" width="30" height="30" rx="8" fill="#036c70"/><g transform="translate(53 30) scale(.92)" fill="none" stroke="#ffffff" stroke-width="2" stroke-linecap="round" stroke-linejoin="round"><rect x="2" y="2" width="20" height="8" rx="2"/><rect x="2" y="14" width="20" height="8" rx="2"/><line x1="6" y1="6" x2="6.01" y2="6"/><line x1="6" y1="18" x2="6.01" y2="18"/></g><text x="88" y="47" font-family="Segoe UI, Helvetica Neue, Arial, sans-serif" font-size="15" font-weight="600" fill="#1d1a16">SharePoint Server</text><rect x="256.8" y="18" width="97.6" height="46" rx="23" fill="#ffffff" stroke="#e0d9cc"/><rect x="265.8" y="26" width="30" height="30" rx="8" fill="#4f56a6"/><g transform="translate(269.8 30) scale(.92)" fill="none" stroke="#ffffff" stroke-width="2" stroke-linecap="round" stroke-linejoin="round"><polyline points="16 18 22 12 16 6"/><polyline points="8 6 2 12 8 18"/></g><text x="304.8" y="47" font-family="Segoe UI, Helvetica Neue, Arial, sans-serif" font-size="15" font-weight="600" fill="#1d1a16">SPFx</text><text x="760" y="47" font-family="Segoe UI, Helvetica Neue, Arial, sans-serif" font-size="13" font-weight="700" fill="#61491a" text-anchor="end" letter-spacing="2">ARCHITECTURE</text><rect x="40" y="86" width="720" height="68.5" rx="12" fill="#e7dfd0" stroke="#d8c5a2" stroke-width="1.5"/><text x="58" y="125.3" font-family="Segoe UI, Helvetica Neue, Arial, sans-serif" font-size="12" font-weight="700" fill="#61491a" letter-spacing="1.2">2003–2010 · FULL-…</text><rect x="216" y="96" width="125" height="48.5" rx="8" fill="#ffffff" stroke="#c9a55f" stroke-width="1.2"/><text x="278.5" y="125.3" font-family="Segoe UI, Helvetica Neue, Arial, sans-serif" font-size="13" fill="#1d1a16" text-anchor="middle">C# in GAC</text><rect x="351" y="96" width="125" height="48.5" rx="8" fill="#ffffff" stroke="#c9a55f" stroke-width="1.2"/><text x="413.5" y="125.3" font-family="Segoe UI, Helvetica Neue, Arial, sans-serif" font-size="13" fill="#1d1a16" text-anchor="middle">SSOM</text><rect x="486" y="96" width="125" height="48.5" rx="8" fill="#ffffff" stroke="#c9a55f" stroke-width="1.2"/><text x="548.5" y="125.3" font-family="Segoe UI, Helvetica Neue, Arial, sans-serif" font-size="13" fill="#1d1a16" text-anchor="middle">Event receivers</text><rect x="621" y="96" width="125" height="48.5" rx="8" fill="#ffffff" stroke="#c9a55f" stroke-width="1.2"/><text x="683.5" y="125.3" font-family="Segoe UI, Helvetica Neue, Arial, sans-serif" font-size="13" fill="#1d1a16" text-anchor="middle">timer jobs</text><path d="M400 156.5V166.5" stroke="#d26a3c" stroke-width="2.5" fill="none"/><path d="M393 164.5L400 175.5L407 164.5Z" fill="#d26a3c"/><rect x="40" y="176.5" width="720" height="68.5" rx="12" fill="#f5f3f0" stroke="#d8c5a2" stroke-width="1.5"/><text x="58" y="215.8" font-family="Segoe UI, Helvetica Neue, Arial, sans-serif" font-size="12" font-weight="700" fill="#61491a" letter-spacing="1.2">2010 · SANDBOXED…</text><rect x="216" y="186.5" width="170" height="48.5" rx="8" fill="#ffffff" stroke="#c9a55f" stroke-width="1.2"/><text x="301" y="215.8" font-family="Segoe UI, Helvetica Neue, Arial, sans-serif" font-size="13" fill="#1d1a16" text-anchor="middle">Restricted SSOM</text><rect x="396" y="186.5" width="170" height="48.5" rx="8" fill="#ffffff" stroke="#c9a55f" stroke-width="1.2"/><text x="481" y="215.8" font-family="Segoe UI, Helvetica Neue, Arial, sans-serif" font-size="13" fill="#1d1a16" text-anchor="middle">Resource points</text><rect x="576" y="186.5" width="170" height="48.5" rx="8" fill="#ffffff" stroke="#c9a55f" stroke-width="1.2"/><text x="661" y="215.8" font-family="Segoe UI, Helvetica Neue, Arial, sans-serif" font-size="13" fill="#1d1a16" text-anchor="middle">Site collection scope</text><path d="M400 247V257" stroke="#d26a3c" stroke-width="2.5" fill="none"/><path d="M393 255L400 266L407 255Z" fill="#d26a3c"/><rect x="40" y="267" width="720" height="68.5" rx="12" fill="#e7dfd0" stroke="#d8c5a2" stroke-width="1.5"/><text x="58" y="306.3" font-family="Segoe UI, Helvetica Neue, Arial, sans-serif" font-size="12" font-weight="700" fill="#61491a" letter-spacing="1.2">2013 · ADD-IN MOD…</text><rect x="216" y="277" width="125" height="48.5" rx="8" fill="#ffffff" stroke="#c9a55f" stroke-width="1.2"/><text x="278.5" y="306.3" font-family="Segoe UI, Helvetica Neue, Arial, sans-serif" font-size="13" fill="#1d1a16" text-anchor="middle">SharePoint-hos…</text><rect x="351" y="277" width="125" height="48.5" rx="8" fill="#ffffff" stroke="#c9a55f" stroke-width="1.2"/><text x="413.5" y="306.3" font-family="Segoe UI, Helvetica Neue, Arial, sans-serif" font-size="13" fill="#1d1a16" text-anchor="middle">Provider-hoste…</text><rect x="486" y="277" width="125" height="48.5" rx="8" fill="#ffffff" stroke="#c9a55f" stroke-width="1.2"/><text x="548.5" y="306.3" font-family="Segoe UI, Helvetica Neue, Arial, sans-serif" font-size="13" fill="#1d1a16" text-anchor="middle">OAuth (ACS / S…</text><rect x="621" y="277" width="125" height="48.5" rx="8" fill="#ffffff" stroke="#c9a55f" stroke-width="1.2"/><text x="683.5" y="306.3" font-family="Segoe UI, Helvetica Neue, Arial, sans-serif" font-size="13" fill="#1d1a16" text-anchor="middle">App parts (ifr…</text><path d="M400 337.5V347.5" stroke="#d26a3c" stroke-width="2.5" fill="none"/><path d="M393 345.5L400 356.5L407 345.5Z" fill="#d26a3c"/><rect x="40" y="357.5" width="720" height="68.5" rx="12" fill="#f5f3f0" stroke="#d8c5a2" stroke-width="1.5"/><text x="58" y="396.8" font-family="Segoe UI, Helvetica Neue, Arial, sans-serif" font-size="12" font-weight="700" fill="#61491a" letter-spacing="1.2">2017 · SHAREPOINT…</text><rect x="216" y="367.5" width="125" height="48.5" rx="8" fill="#ffffff" stroke="#c9a55f" stroke-width="1.2"/><text x="278.5" y="396.8" font-family="Segoe UI, Helvetica Neue, Arial, sans-serif" font-size="13" fill="#1d1a16" text-anchor="middle">Client-side Ty…</text><rect x="351" y="367.5" width="125" height="48.5" rx="8" fill="#ffffff" stroke="#c9a55f" stroke-width="1.2"/><text x="413.5" y="396.8" font-family="Segoe UI, Helvetica Neue, Arial, sans-serif" font-size="13" fill="#1d1a16" text-anchor="middle">In-page</text><rect x="486" y="367.5" width="125" height="48.5" rx="8" fill="#ffffff" stroke="#c9a55f" stroke-width="1.2"/><text x="548.5" y="396.8" font-family="Segoe UI, Helvetica Neue, Arial, sans-serif" font-size="13" fill="#1d1a16" text-anchor="middle">CDN hosted</text><rect x="621" y="367.5" width="125" height="48.5" rx="8" fill="#ffffff" stroke="#c9a55f" stroke-width="1.2"/><text x="683.5" y="396.8" font-family="Segoe UI, Helvetica Neue, Arial, sans-serif" font-size="13" fill="#1d1a16" text-anchor="middle">Teams/Viva/Out…</text></svg>