<svg xmlns="http://www.w3.org/2000/svg" viewBox="0 0 800 450"><rect width="800" height="450" fill="#f5f3f0"/><rect x="0" y="0" width="800" height="6" fill="#a8781a"/><rect x="40" y="18" width="206.8" height="46" rx="23" fill="#ffffff" stroke="#e0d9cc"/><rect x="49" y="26" width="30" height="30" rx="8" fill="#036c70"/><g transform="translate(53 30) scale(.92)" fill="none" stroke="#ffffff" stroke-width="2" stroke-linecap="round" stroke-linejoin="round"><rect x="2" y="2" width="20" height="8" rx="2"/><rect x="2" y="14" width="20" height="8" rx="2"/><line x1="6" y1="6" x2="6.01" y2="6"/><line x1="6" y1="18" x2="6.01" y2="18"/></g><text x="88" y="47" font-family="Segoe UI, Helvetica Neue, Arial, sans-serif" font-size="15" font-weight="600" fill="#1d1a16">SharePoint Server</text><rect x="256.8" y="18" width="131.2" height="46" rx="23" fill="#ffffff" stroke="#e0d9cc"/><rect x="265.8" y="26" width="30" height="30" rx="8" fill="#7a5aa6"/><g transform="translate(269.8 30) scale(.92)" fill="none" stroke="#ffffff" stroke-width="2" stroke-linecap="round" stroke-linejoin="round"><path d="M14 2H6a2 2 0 0 0-2 2v16a2 2 0 0 0 2 2h12a2 2 0 0 0 2-2V8z"/><polyline points="14 2 14 8 20 8"/><line x1="16" y1="13" x2="8" y2="13"/><line x1="16" y1="17" x2="8" y2="17"/><polyline points="10 9 9 9 8 9"/></g><text x="304.8" y="47" font-family="Segoe UI, Helvetica Neue, Arial, sans-serif" font-size="15" font-weight="600" fill="#1d1a16">InfoPath</text><text x="760" y="47" font-family="Segoe UI, Helvetica Neue, Arial, sans-serif" font-size="13" font-weight="700" fill="#61491a" text-anchor="end" letter-spacing="2">PROCESS FLOW</text><rect x="40" y="190" width="145.5" height="96" rx="14" fill="#a8781a" stroke="#c9a55f" stroke-width="1.5"/><text x="112.8" y="224" font-family="Segoe UI, Helvetica Neue, Arial, sans-serif" font-size="16" font-weight="600" fill="#ffffff" text-anchor="middle">Inventory</text><text x="112.8" y="244" font-family="Segoe UI, Helvetica Neue, Arial, sans-serif" font-size="16" font-weight="600" fill="#ffffff" text-anchor="middle">M365</text><text x="112.8" y="264" font-family="Segoe UI, Helvetica Neue, Arial, sans-serif" font-size="16" font-weight="600" fill="#ffffff" text-anchor="middle">Assessment…</text><path d="M189.5 238H218.5" stroke="#d26a3c" stroke-width="2.5" fill="none"/><path d="M216.5 231L227.5 238L216.5 245Z" fill="#d26a3c"/><rect x="231.5" y="190" width="145.5" height="96" rx="14" fill="#ffffff" stroke="#c9a55f" stroke-width="1.5"/><text x="304.3" y="224" font-family="Segoe UI, Helvetica Neue, Arial, sans-serif" font-size="16" font-weight="400" fill="#1d1a16" text-anchor="middle">Prioritize by</text><text x="304.3" y="244" font-family="Segoe UI, Helvetica Neue, Arial, sans-serif" font-size="16" font-weight="400" fill="#1d1a16" text-anchor="middle">retirement</text><text x="304.3" y="264" font-family="Segoe UI, Helvetica Neue, Arial, sans-serif" font-size="16" font-weight="400" fill="#1d1a16" text-anchor="middle">date &amp;…</text><path d="M381 238H410" stroke="#d26a3c" stroke-width="2.5" fill="none"/><path d="M408 231L419 238L408 245Z" fill="#d26a3c"/><rect x="423" y="190" width="145.5" height="96" rx="14" fill="#ffffff" stroke="#c9a55f" stroke-width="1.5"/><text x="495.8" y="224" font-family="Segoe UI, Helvetica Neue, Arial, sans-serif" font-size="16" font-weight="400" fill="#1d1a16" text-anchor="middle">Replace SPFx</text><text x="495.8" y="244" font-family="Segoe UI, Helvetica Neue, Arial, sans-serif" font-size="16" font-weight="400" fill="#1d1a16" text-anchor="middle">· Power</text><text x="495.8" y="264" font-family="Segoe UI, Helvetica Neue, Arial, sans-serif" font-size="16" font-weight="400" fill="#1d1a16" text-anchor="middle">Platform ·…</text><path d="M572.5 238H601.5" stroke="#d26a3c" stroke-width="2.5" fill="none"/><path d="M599.5 231L610.5 238L599.5 245Z" fill="#d26a3c"/><rect x="614.5" y="190" width="145.5" height="96" rx="14" fill="#61491a" stroke="#c9a55f" stroke-width="1.5"/><text x="687.3" y="224" font-family="Segoe UI, Helvetica Neue, Arial, sans-serif" font-size="16" font-weight="600" fill="#ffffff" text-anchor="middle">Decommission</text><text x="687.3" y="244" font-family="Segoe UI, Helvetica Neue, Arial, sans-serif" font-size="16" font-weight="600" fill="#ffffff" text-anchor="middle">&amp; update</text><text x="687.3" y="264" font-family="Segoe UI, Helvetica Neue, Arial, sans-serif" font-size="16" font-weight="600" fill="#ffffff" text-anchor="middle">governance</text></svg>