<svg xmlns="http://www.w3.org/2000/svg" viewBox="0 0 800 450"><rect width="800" height="450" fill="#f0f4f4"/><rect x="0" y="0" width="800" height="6" fill="#2f7d72"/><rect x="40" y="18" width="206.8" height="46" rx="23" fill="#ffffff" stroke="#e0d9cc"/><rect x="49" y="26" width="30" height="30" rx="8" fill="#036c70"/><g transform="translate(53 30) scale(.92)" fill="none" stroke="#ffffff" stroke-width="2" stroke-linecap="round" stroke-linejoin="round"><rect x="2" y="2" width="20" height="8" rx="2"/><rect x="2" y="14" width="20" height="8" rx="2"/><line x1="6" y1="6" x2="6.01" y2="6"/><line x1="6" y1="18" x2="6.01" y2="18"/></g><text x="88" y="47" font-family="Segoe UI, Helvetica Neue, Arial, sans-serif" font-size="15" font-weight="600" fill="#1d1a16">SharePoint Server</text><text x="760" y="47" font-family="Segoe UI, Helvetica Neue, Arial, sans-serif" font-size="13" font-weight="700" fill="#215951" text-anchor="end" letter-spacing="2">ARCHITECTURE</text><rect x="40" y="86" width="720" height="70" rx="12" fill="#d2e4e2" stroke="#a8d2cc" stroke-width="1.5"/><text x="58" y="126" font-family="Segoe UI, Helvetica Neue, Arial, sans-serif" font-size="12" font-weight="700" fill="#215951" letter-spacing="1.2">CLIENTS</text><rect x="216" y="96" width="170" height="50" rx="8" fill="#ffffff" stroke="#6bbdb2" stroke-width="1.2"/><text x="301" y="126" font-family="Segoe UI, Helvetica Neue, Arial, sans-serif" font-size="13" fill="#1d1a16" text-anchor="middle">C# console / service…</text><rect x="396" y="96" width="170" height="50" rx="8" fill="#ffffff" stroke="#6bbdb2" stroke-width="1.2"/><text x="481" y="126" font-family="Segoe UI, Helvetica Neue, Arial, sans-serif" font-size="13" fill="#1d1a16" text-anchor="middle">Browser page (JSOM)</text><rect x="576" y="96" width="170" height="50" rx="8" fill="#ffffff" stroke="#6bbdb2" stroke-width="1.2"/><text x="661" y="126" font-family="Segoe UI, Helvetica Neue, Arial, sans-serif" font-size="13" fill="#1d1a16" text-anchor="middle">Any HTTP client (RES…</text><path d="M400 158V168" stroke="#d26a3c" stroke-width="2.5" fill="none"/><path d="M393 166L400 177L407 166Z" fill="#d26a3c"/><rect x="40" y="178" width="720" height="70" rx="12" fill="#f0f4f4" stroke="#a8d2cc" stroke-width="1.5"/><text x="58" y="218" font-family="Segoe UI, Helvetica Neue, Arial, sans-serif" font-size="12" font-weight="700" fill="#215951" letter-spacing="1.2">SHAREPOINT ENDPOI…</text><rect x="216" y="188" width="170" height="50" rx="8" fill="#ffffff" stroke="#6bbdb2" stroke-width="1.2"/><text x="301" y="218" font-family="Segoe UI, Helvetica Neue, Arial, sans-serif" font-size="13" fill="#1d1a16" text-anchor="middle">/_vti_bin/client.svc…</text><rect x="396" y="188" width="170" height="50" rx="8" fill="#ffffff" stroke="#6bbdb2" stroke-width="1.2"/><text x="481" y="218" font-family="Segoe UI, Helvetica Neue, Arial, sans-serif" font-size="13" fill="#1d1a16" text-anchor="middle">/_api/web/... (OData…</text><rect x="576" y="188" width="170" height="50" rx="8" fill="#ffffff" stroke="#6bbdb2" stroke-width="1.2"/><text x="661" y="218" font-family="Segoe UI, Helvetica Neue, Arial, sans-serif" font-size="13" fill="#1d1a16" text-anchor="middle">/_api/v2.0 (SPO, Gra…</text><path d="M400 250V260" stroke="#d26a3c" stroke-width="2.5" fill="none"/><path d="M393 258L400 269L407 258Z" fill="#d26a3c"/><rect x="40" y="270" width="720" height="70" rx="12" fill="#d2e4e2" stroke="#a8d2cc" stroke-width="1.5"/><text x="58" y="310" font-family="Segoe UI, Helvetica Neue, Arial, sans-serif" font-size="12" font-weight="700" fill="#215951" letter-spacing="1.2">CONTENT</text><rect x="216" y="280" width="125" height="50" rx="8" fill="#ffffff" stroke="#6bbdb2" stroke-width="1.2"/><text x="278.5" y="310" font-family="Segoe UI, Helvetica Neue, Arial, sans-serif" font-size="13" fill="#1d1a16" text-anchor="middle">Webs</text><rect x="351" y="280" width="125" height="50" rx="8" fill="#ffffff" stroke="#6bbdb2" stroke-width="1.2"/><text x="413.5" y="310" font-family="Segoe UI, Helvetica Neue, Arial, sans-serif" font-size="13" fill="#1d1a16" text-anchor="middle">Lists</text><rect x="486" y="280" width="125" height="50" rx="8" fill="#ffffff" stroke="#6bbdb2" stroke-width="1.2"/><text x="548.5" y="310" font-family="Segoe UI, Helvetica Neue, Arial, sans-serif" font-size="13" fill="#1d1a16" text-anchor="middle">Items</text><rect x="621" y="280" width="125" height="50" rx="8" fill="#ffffff" stroke="#6bbdb2" stroke-width="1.2"/><text x="683.5" y="310" font-family="Segoe UI, Helvetica Neue, Arial, sans-serif" font-size="13" fill="#1d1a16" text-anchor="middle">Files</text></svg>