<svg xmlns="http://www.w3.org/2000/svg" viewBox="0 0 800 450"><rect width="800" height="450" fill="#f5f2f0"/><rect x="0" y="0" width="800" height="6" fill="#c0622b"/><rect x="40" y="18" width="114.4" height="46" rx="23" fill="#ffffff" stroke="#e0d9cc"/><rect x="49" y="26" width="30" height="30" rx="8" fill="#c0622b"/><g transform="translate(53 30) scale(.92)" fill="none" stroke="#ffffff" stroke-width="2" stroke-linecap="round" stroke-linejoin="round"><line x1="6" y1="3" x2="6" y2="15"/><circle cx="18" cy="6" r="3"/><circle cx="6" cy="18" r="3"/><path d="M18 9a9 9 0 0 1-9 9"/></g><text x="88" y="47" font-family="Segoe UI, Helvetica Neue, Arial, sans-serif" font-size="15" font-weight="600" fill="#1d1a16">Nintex</text><rect x="164.4" y="18" width="181.6" height="46" rx="23" fill="#ffffff" stroke="#e0d9cc"/><svg x="173.4" y="26" width="30" height="30" viewBox="0 0 96 96">
<g clip-path="url(#v176-clip0_4303_1230)">
<g clip-path="url(#v176-clip1_4303_1230)">
<path d="M52.5093 3C55.3657 3 58.0858 4.22148 59.9834 6.35636L82.6577 31.8649C88.9106 38.8995 85.0005 50.0661 75.7251 51.6632L21.5 61L28.2997 53.3134C30.9819 50.2813 30.9765 45.7235 28.287 42.6979L7.79435 19.6436C2.06189 13.1946 6.63995 3 15.2684 3H52.5093Z" fill="url(#v176-paint0_linear_4303_1230)"/>
<path d="M15.2684 93C6.63995 93 2.0619 82.8054 7.79436 76.3563L59.0945 18.6436C62.4624 14.8548 62.4624 9.14522 59.0945 5.35636L57 3L91.0945 41.3564C94.4624 45.1453 94.4624 50.8548 91.0945 54.6437L59.9834 89.6436C58.0858 91.7785 55.3657 93 52.5093 93H15.2684Z" fill="url(#v176-paint1_linear_4303_1230)"/>
<path d="M15.2684 93C6.63995 93 2.0619 82.8054 7.79436 76.3563L59.0945 18.6436C62.4624 14.8548 62.4624 9.14522 59.0945 5.35636L57 3L91.0945 41.3564C94.4624 45.1453 94.4624 50.8548 91.0945 54.6437L59.9834 89.6436C58.0858 91.7785 55.3657 93 52.5093 93H15.2684Z" fill="url(#v176-paint2_linear_4303_1230)"/>
<path d="M38.3611 93C33.184 93 30.4371 86.8833 33.8766 83.0139L75.0945 36.6436C78.4624 32.8548 78.4624 27.1452 75.0945 23.3563L71 18.75L91.0945 41.3563C94.4624 45.1452 94.4624 50.8547 91.0946 54.6436L59.9834 89.6437C58.0858 91.7785 55.3657 93 52.5093 93H38.3611Z" fill="url(#v176-paint3_linear_4303_1230)"/>
</g>
</g>
<defs>
<linearGradient id="v176-paint0_linear_4303_1230" x1="48" y1="31.5" x2="14" y2="-2.50001" gradientUnits="userSpaceOnUse">
<stop stop-color="#102784"/>
<stop offset="0.274053" stop-color="#1B44B1"/>
<stop offset="1" stop-color="#2764E7"/>
</linearGradient>
<linearGradient id="v176-paint1_linear_4303_1230" x1="76.5" y1="25" x2="11.5" y2="91.5" gradientUnits="userSpaceOnUse">
<stop stop-color="#0FAFFF"/>
<stop offset="0.177827" stop-color="#4894FE"/>
<stop offset="1" stop-color="#2764E7"/>
</linearGradient>
<linearGradient id="v176-paint2_linear_4303_1230" x1="28.5" y1="72" x2="38.5" y2="83.5" gradientUnits="userSpaceOnUse">
<stop stop-color="#2764E7" stop-opacity="0"/>
<stop offset="1" stop-color="#2052CB"/>
</linearGradient>
<linearGradient id="v176-paint3_linear_4303_1230" x1="89" y1="38.5" x2="43" y2="90.5" gradientUnits="userSpaceOnUse">
<stop stop-color="#6CE0FF"/>
<stop offset="0.211723" stop-color="#66C0FF"/>
<stop offset="1" stop-color="#58AAFE"/>
</linearGradient>
<clipPath id="v176-clip0_4303_1230">
<rect width="96" height="96" fill="white"/>
</clipPath>
<clipPath id="v176-clip1_4303_1230">
<rect width="96" height="96" fill="white"/>
</clipPath>
</defs>
</svg><text x="212.4" y="47" font-family="Segoe UI, Helvetica Neue, Arial, sans-serif" font-size="15" font-weight="600" fill="#1d1a16">Power Automate</text><text x="760" y="47" font-family="Segoe UI, Helvetica Neue, Arial, sans-serif" font-size="13" font-weight="700" fill="#61341a" text-anchor="end" letter-spacing="2">ARCHITECTURE</text><rect x="40" y="86" width="720" height="68.5" rx="12" fill="#e7d8d0" stroke="#d8b6a2" stroke-width="1.5"/><text x="58" y="125.3" font-family="Segoe UI, Helvetica Neue, Arial, sans-serif" font-size="12" font-weight="700" fill="#61341a" letter-spacing="1.2">START EVENT</text><rect x="216" y="96" width="170" height="48.5" rx="8" fill="#ffffff" stroke="#c9865f" stroke-width="1.2"/><text x="301" y="125.3" font-family="Segoe UI, Helvetica Neue, Arial, sans-serif" font-size="13" fill="#1d1a16" text-anchor="middle">Form / SharePoint /…</text><rect x="396" y="96" width="170" height="48.5" rx="8" fill="#ffffff" stroke="#c9865f" stroke-width="1.2"/><text x="481" y="125.3" font-family="Segoe UI, Helvetica Neue, Arial, sans-serif" font-size="13" fill="#1d1a16" text-anchor="middle">Start event variable…</text><path d="M400 156.5V166.5" stroke="#d26a3c" stroke-width="2.5" fill="none"/><path d="M393 164.5L400 175.5L407 164.5Z" fill="#d26a3c"/><rect x="40" y="176.5" width="720" height="68.5" rx="12" fill="#f5f2f0" stroke="#d8b6a2" stroke-width="1.5"/><text x="58" y="215.8" font-family="Segoe UI, Helvetica Neue, Arial, sans-serif" font-size="12" font-weight="700" fill="#61341a" letter-spacing="1.2">VARIABLES</text><rect x="216" y="186.5" width="125" height="48.5" rx="8" fill="#ffffff" stroke="#c9865f" stroke-width="1.2"/><text x="278.5" y="215.8" font-family="Segoe UI, Helvetica Neue, Arial, sans-serif" font-size="13" fill="#1d1a16" text-anchor="middle">Text</text><rect x="351" y="186.5" width="125" height="48.5" rx="8" fill="#ffffff" stroke="#c9865f" stroke-width="1.2"/><text x="413.5" y="215.8" font-family="Segoe UI, Helvetica Neue, Arial, sans-serif" font-size="13" fill="#1d1a16" text-anchor="middle">Integer</text><rect x="486" y="186.5" width="125" height="48.5" rx="8" fill="#ffffff" stroke="#c9865f" stroke-width="1.2"/><text x="548.5" y="215.8" font-family="Segoe UI, Helvetica Neue, Arial, sans-serif" font-size="13" fill="#1d1a16" text-anchor="middle">Decimal</text><rect x="621" y="186.5" width="125" height="48.5" rx="8" fill="#ffffff" stroke="#c9865f" stroke-width="1.2"/><text x="683.5" y="215.8" font-family="Segoe UI, Helvetica Neue, Arial, sans-serif" font-size="13" fill="#1d1a16" text-anchor="middle">Boolean</text><path d="M400 247V257" stroke="#d26a3c" stroke-width="2.5" fill="none"/><path d="M393 255L400 266L407 255Z" fill="#d26a3c"/><rect x="40" y="267" width="720" height="68.5" rx="12" fill="#e7d8d0" stroke="#d8b6a2" stroke-width="1.5"/><text x="58" y="306.3" font-family="Segoe UI, Helvetica Neue, Arial, sans-serif" font-size="12" font-weight="700" fill="#61341a" letter-spacing="1.2">LOGIC</text><rect x="216" y="277" width="125" height="48.5" rx="8" fill="#ffffff" stroke="#c9865f" stroke-width="1.2"/><text x="278.5" y="306.3" font-family="Segoe UI, Helvetica Neue, Arial, sans-serif" font-size="13" fill="#1d1a16" text-anchor="middle">Branch by cond…</text><rect x="351" y="277" width="125" height="48.5" rx="8" fill="#ffffff" stroke="#c9865f" stroke-width="1.2"/><text x="413.5" y="306.3" font-family="Segoe UI, Helvetica Neue, Arial, sans-serif" font-size="13" fill="#1d1a16" text-anchor="middle">Branch by stag…</text><rect x="486" y="277" width="125" height="48.5" rx="8" fill="#ffffff" stroke="#c9865f" stroke-width="1.2"/><text x="548.5" y="306.3" font-family="Segoe UI, Helvetica Neue, Arial, sans-serif" font-size="13" fill="#1d1a16" text-anchor="middle">Run parallel p…</text><rect x="621" y="277" width="125" height="48.5" rx="8" fill="#ffffff" stroke="#c9865f" stroke-width="1.2"/><text x="683.5" y="306.3" font-family="Segoe UI, Helvetica Neue, Arial, sans-serif" font-size="13" fill="#1d1a16" text-anchor="middle">Loop for each…</text><path d="M400 337.5V347.5" stroke="#d26a3c" stroke-width="2.5" fill="none"/><path d="M393 345.5L400 356.5L407 345.5Z" fill="#d26a3c"/><rect x="40" y="357.5" width="720" height="68.5" rx="12" fill="#f5f2f0" stroke="#d8b6a2" stroke-width="1.5"/><text x="58" y="396.8" font-family="Segoe UI, Helvetica Neue, Arial, sans-serif" font-size="12" font-weight="700" fill="#61341a" letter-spacing="1.2">TASKS</text><rect x="216" y="367.5" width="170" height="48.5" rx="8" fill="#ffffff" stroke="#c9865f" stroke-width="1.2"/><text x="301" y="396.8" font-family="Segoe UI, Helvetica Neue, Arial, sans-serif" font-size="13" fill="#1d1a16" text-anchor="middle">Assign a task (custo…</text><rect x="396" y="367.5" width="170" height="48.5" rx="8" fill="#ffffff" stroke="#c9865f" stroke-width="1.2"/><text x="481" y="396.8" font-family="Segoe UI, Helvetica Neue, Arial, sans-serif" font-size="13" fill="#1d1a16" text-anchor="middle">Express approval (em…</text><rect x="576" y="367.5" width="170" height="48.5" rx="8" fill="#ffffff" stroke="#c9865f" stroke-width="1.2"/><text x="661" y="396.8" font-family="Segoe UI, Helvetica Neue, Arial, sans-serif" font-size="13" fill="#1d1a16" text-anchor="middle">Reminders &amp; escalati…</text></svg>