<svg xmlns="http://www.w3.org/2000/svg" viewBox="0 0 800 450"><rect width="800" height="450" fill="#f5f2f0"/><rect x="0" y="0" width="800" height="6" fill="#c0622b"/><rect x="40" y="18" width="114.4" height="46" rx="23" fill="#ffffff" stroke="#e0d9cc"/><rect x="49" y="26" width="30" height="30" rx="8" fill="#c0622b"/><g transform="translate(53 30) scale(.92)" fill="none" stroke="#ffffff" stroke-width="2" stroke-linecap="round" stroke-linejoin="round"><line x1="6" y1="3" x2="6" y2="15"/><circle cx="18" cy="6" r="3"/><circle cx="6" cy="18" r="3"/><path d="M18 9a9 9 0 0 1-9 9"/></g><text x="88" y="47" font-family="Segoe UI, Helvetica Neue, Arial, sans-serif" font-size="15" font-weight="600" fill="#1d1a16">Nintex</text><rect x="164.4" y="18" width="148" height="46" rx="23" fill="#ffffff" stroke="#e0d9cc"/><rect x="173.4" y="26" width="30" height="30" rx="8" fill="#036c70"/><g transform="translate(177.4 30) scale(.92)" fill="none" stroke="#ffffff" stroke-width="2" stroke-linecap="round" stroke-linejoin="round"><polygon points="12 2 2 7 12 12 22 7 12 2"/><polyline points="2 17 12 22 22 17"/><polyline points="2 12 12 17 22 12"/></g><text x="212.4" y="47" font-family="Segoe UI, Helvetica Neue, Arial, sans-serif" font-size="15" font-weight="600" fill="#1d1a16">SharePoint</text><text x="760" y="47" font-family="Segoe UI, Helvetica Neue, Arial, sans-serif" font-size="13" font-weight="700" fill="#61341a" text-anchor="end" letter-spacing="2">ARCHITECTURE</text><rect x="40" y="86" width="720" height="68.5" rx="12" fill="#e7d8d0" stroke="#d8b6a2" stroke-width="1.5"/><text x="58" y="125.3" font-family="Segoe UI, Helvetica Neue, Arial, sans-serif" font-size="12" font-weight="700" fill="#61341a" letter-spacing="1.2">NINTEX PROCESS MA…</text><rect x="216" y="96" width="170" height="48.5" rx="8" fill="#ffffff" stroke="#c9865f" stroke-width="1.2"/><text x="301" y="125.3" font-family="Segoe UI, Helvetica Neue, Arial, sans-serif" font-size="13" fill="#1d1a16" text-anchor="middle">Map processes with o…</text><rect x="396" y="96" width="170" height="48.5" rx="8" fill="#ffffff" stroke="#c9865f" stroke-width="1.2"/><text x="481" y="125.3" font-family="Segoe UI, Helvetica Neue, Arial, sans-serif" font-size="13" fill="#1d1a16" text-anchor="middle">Process health &amp; var…</text><rect x="576" y="96" width="170" height="48.5" rx="8" fill="#ffffff" stroke="#c9865f" stroke-width="1.2"/><text x="661" y="125.3" font-family="Segoe UI, Helvetica Neue, Arial, sans-serif" font-size="13" fill="#1d1a16" text-anchor="middle">Improvement suggesti…</text><path d="M400 156.5V166.5" stroke="#d26a3c" stroke-width="2.5" fill="none"/><path d="M393 164.5L400 175.5L407 164.5Z" fill="#d26a3c"/><rect x="40" y="176.5" width="720" height="68.5" rx="12" fill="#f5f2f0" stroke="#d8b6a2" stroke-width="1.5"/><text x="58" y="215.8" font-family="Segoe UI, Helvetica Neue, Arial, sans-serif" font-size="12" font-weight="700" fill="#61341a" letter-spacing="1.2">NINTEX AUTOMATION…</text><rect x="216" y="186.5" width="125" height="48.5" rx="8" fill="#ffffff" stroke="#c9865f" stroke-width="1.2"/><text x="278.5" y="215.8" font-family="Segoe UI, Helvetica Neue, Arial, sans-serif" font-size="13" fill="#1d1a16" text-anchor="middle">Workflows</text><rect x="351" y="186.5" width="125" height="48.5" rx="8" fill="#ffffff" stroke="#c9865f" stroke-width="1.2"/><text x="413.5" y="215.8" font-family="Segoe UI, Helvetica Neue, Arial, sans-serif" font-size="13" fill="#1d1a16" text-anchor="middle">forms</text><rect x="486" y="186.5" width="125" height="48.5" rx="8" fill="#ffffff" stroke="#c9865f" stroke-width="1.2"/><text x="548.5" y="215.8" font-family="Segoe UI, Helvetica Neue, Arial, sans-serif" font-size="13" fill="#1d1a16" text-anchor="middle">DocGen</text><rect x="621" y="186.5" width="125" height="48.5" rx="8" fill="#ffffff" stroke="#c9865f" stroke-width="1.2"/><text x="683.5" y="215.8" font-family="Segoe UI, Helvetica Neue, Arial, sans-serif" font-size="13" fill="#1d1a16" text-anchor="middle">Connectors to…</text><path d="M400 247V257" stroke="#d26a3c" stroke-width="2.5" fill="none"/><path d="M393 255L400 266L407 255Z" fill="#d26a3c"/><rect x="40" y="267" width="720" height="68.5" rx="12" fill="#e7d8d0" stroke="#d8b6a2" stroke-width="1.5"/><text x="58" y="306.3" font-family="Segoe UI, Helvetica Neue, Arial, sans-serif" font-size="12" font-weight="700" fill="#61341a" letter-spacing="1.2">NINTEX RPA</text><rect x="216" y="277" width="170" height="48.5" rx="8" fill="#ffffff" stroke="#c9865f" stroke-width="1.2"/><text x="301" y="306.3" font-family="Segoe UI, Helvetica Neue, Arial, sans-serif" font-size="13" fill="#1d1a16" text-anchor="middle">Desktop bots</text><rect x="396" y="277" width="170" height="48.5" rx="8" fill="#ffffff" stroke="#c9865f" stroke-width="1.2"/><text x="481" y="306.3" font-family="Segoe UI, Helvetica Neue, Arial, sans-serif" font-size="13" fill="#1d1a16" text-anchor="middle">Attended / unattended</text><rect x="576" y="277" width="170" height="48.5" rx="8" fill="#ffffff" stroke="#c9865f" stroke-width="1.2"/><text x="661" y="306.3" font-family="Segoe UI, Helvetica Neue, Arial, sans-serif" font-size="13" fill="#1d1a16" text-anchor="middle">Called from NAC work…</text><path d="M400 337.5V347.5" stroke="#d26a3c" stroke-width="2.5" fill="none"/><path d="M393 345.5L400 356.5L407 345.5Z" fill="#d26a3c"/><rect x="40" y="357.5" width="720" height="68.5" rx="12" fill="#f5f2f0" stroke="#d8b6a2" stroke-width="1.5"/><text x="58" y="396.8" font-family="Segoe UI, Helvetica Neue, Arial, sans-serif" font-size="12" font-weight="700" fill="#61341a" letter-spacing="1.2">NINTEX K2</text><rect x="216" y="367.5" width="170" height="48.5" rx="8" fill="#ffffff" stroke="#c9865f" stroke-width="1.2"/><text x="301" y="396.8" font-family="Segoe UI, Helvetica Neue, Arial, sans-serif" font-size="13" fill="#1d1a16" text-anchor="middle">Model-driven style a…</text><rect x="396" y="367.5" width="170" height="48.5" rx="8" fill="#ffffff" stroke="#c9865f" stroke-width="1.2"/><text x="481" y="396.8" font-family="Segoe UI, Helvetica Neue, Arial, sans-serif" font-size="13" fill="#1d1a16" text-anchor="middle">Complex forms (Smart…</text><rect x="576" y="367.5" width="170" height="48.5" rx="8" fill="#ffffff" stroke="#c9865f" stroke-width="1.2"/><text x="661" y="396.8" font-family="Segoe UI, Helvetica Neue, Arial, sans-serif" font-size="13" fill="#1d1a16" text-anchor="middle">On-prem or cloud</text></svg>