<svg xmlns="http://www.w3.org/2000/svg" viewBox="0 0 800 450"><rect width="800" height="450" fill="#f0f4f2"/><rect x="0" y="0" width="800" height="6" fill="#2f8059"/><rect x="40" y="18" width="139.6" height="46" rx="23" fill="#ffffff" stroke="#e0d9cc"/><svg x="49" y="26" width="30" height="30" viewBox="0 0 96 96">
<g clip-path="url(#v155-clip0_4303_1230)">
<g clip-path="url(#v155-clip1_4303_1230)">
<g clip-path="url(#v155-clip2_4303_1230)">
<path d="M13.8776 21.8242C29.1033 8.13791 49.7501 8.1861 62.955 18.9134C74.9816 28.6836 77.4697 44.3159 70.851 55.7801C64.2321 67.2443 52.5277 70.1455 39.5011 62.6247L31.7286 76.087L31.7234 76.0862C27.4181 83.5324 17.8937 86.0828 10.4437 81.7817C7.45394 80.0556 5.25322 77.4879 3.96665 74.551L3.96096 74.5511C-4.07832 55.7804 0.200745 34.1184 13.8776 21.8242Z" fill="url(#v155-paint0_radial_4303_1230)"/>
<path d="M13.8776 21.8242C29.1033 8.13791 49.7501 8.1861 62.955 18.9134C74.9816 28.6836 77.4697 44.3159 70.851 55.7801C64.2321 67.2443 52.5277 70.1455 39.5011 62.6247L31.7286 76.087L31.7234 76.0862C27.4181 83.5324 17.8937 86.0828 10.4437 81.7817C7.45394 80.0556 5.25322 77.4879 3.96665 74.551L3.96096 74.5511C-4.07832 55.7804 0.200745 34.1184 13.8776 21.8242Z" fill="url(#v155-paint1_radial_4303_1230)" fill-opacity="0.8"/>
<path d="M85.4327 14.2231C88.4528 15.9668 90.6686 18.569 91.9494 21.5433L91.9533 21.5444C99.9406 40.2943 95.6533 61.9068 81.9983 74.1814C66.7726 87.8677 46.1257 87.8196 32.9209 77.0923C20.8945 67.3221 18.4062 51.6897 25.0249 40.2256C31.6438 28.7614 43.3482 25.8601 56.3748 33.381L64.1434 19.9255L64.1482 19.9249C68.4516 12.4736 77.9805 9.92084 85.4327 14.2231Z" fill="url(#v155-paint2_radial_4303_1230)"/>
<path d="M85.4327 14.2231C88.4528 15.9668 90.6686 18.569 91.9494 21.5433L91.9533 21.5444C99.9406 40.2943 95.6533 61.9068 81.9983 74.1814C66.7726 87.8677 46.1257 87.8196 32.9209 77.0923C20.8945 67.3221 18.4062 51.6897 25.0249 40.2256C31.6438 28.7614 43.3482 25.8601 56.3748 33.381L64.1434 19.9255L64.1482 19.9249C68.4516 12.4736 77.9805 9.92084 85.4327 14.2231Z" fill="url(#v155-paint3_radial_4303_1230)" fill-opacity="0.9"/>
<path d="M39.5041 62.6261C52.5307 70.1469 64.2352 67.2456 70.8541 55.7814C77.2488 44.7055 75.1426 29.7389 64.147 19.9271L56.3791 33.3814L39.5041 62.6261Z" fill="url(#v155-paint4_radial_4303_1230)"/>
<path d="M56.3794 33.3815C43.3528 25.8607 31.6482 28.762 25.0294 40.2262C18.6347 51.3021 20.7409 66.2687 31.7364 76.0806L39.5043 62.6262L56.3794 33.3815Z" fill="url(#v155-paint5_radial_4303_1230)"/>
<path d="M33.3215 56.4453C37.9837 64.5204 48.3094 67.2872 56.3846 62.625C64.4598 57.9628 67.2266 47.6371 62.5643 39.5619C57.9021 31.4867 47.5764 28.72 39.5013 33.3822C31.4261 38.0444 28.6593 48.3701 33.3215 56.4453Z" fill="url(#v155-paint6_radial_4303_1230)"/>
</g>
</g>
</g>
<defs>
<radialGradient id="v155-paint0_radial_4303_1230" cx="0" cy="0" r="1" gradientUnits="userSpaceOnUse" gradientTransform="translate(46.0001 49.4996) rotate(-148.717) scale(46.2195 47.5359)">
<stop offset="0.465088" stop-color="#09442A"/>
<stop offset="0.70088" stop-color="#136C6C"/>
<stop offset="1" stop-color="#22918B"/>
</radialGradient>
<radialGradient id="v155-paint1_radial_4303_1230" cx="0" cy="0" r="1" gradientUnits="userSpaceOnUse" gradientTransform="translate(50.0001 32.4996) rotate(123.57) scale(66.0095 46.5498)">
<stop offset="0.718705" stop-color="#1A7F7C" stop-opacity="0"/>
<stop offset="1" stop-color="#16BBDA"/>
</radialGradient>
<radialGradient id="v155-paint2_radial_4303_1230" cx="0" cy="0" r="1" gradientUnits="userSpaceOnUse" gradientTransform="translate(50.4999 44.5001) rotate(30.75) scale(45.9618 44.5095)">
<stop offset="0.358097" stop-color="#136C6C"/>
<stop offset="0.789474" stop-color="#42B870"/>
<stop offset="1" stop-color="#76D45E"/>
</radialGradient>
<radialGradient id="v155-paint3_radial_4303_1230" cx="0" cy="0" r="1" gradientTransform="matrix(42.5 -36.0002 31.1824 36.8127 49.4998 55.5001)" gradientUnits="userSpaceOnUse">
<stop offset="0.583166" stop-color="#76D45E" stop-opacity="0"/>
<stop offset="1" stop-color="#C8F5B7"/>
</radialGradient>
<radialGradient id="v155-paint4_radial_4303_1230" cx="0" cy="0" r="1" gradientUnits="userSpaceOnUse" gradientTransform="translate(47.5 48) rotate(-58.9042) scale(32.6898)">
<stop offset="0.486266" stop-color="#22918B"/>
<stop offset="0.729599" stop-color="#42B870"/>
<stop offset="1" stop-color="#43E5CA"/>
</radialGradient>
<radialGradient id="v155-paint5_radial_4303_1230" cx="0" cy="0" r="1" gradientUnits="userSpaceOnUse" gradientTransform="translate(47.3833 49.0077) rotate(119.859) scale(31.1328 29.4032)">
<stop offset="0.459553" stop-color="#08494E"/>
<stop offset="0.742242" stop-color="#1A7F7C"/>
<stop offset="1" stop-color="#309C61"/>
</radialGradient>
<radialGradient id="v155-paint6_radial_4303_1230" cx="0" cy="0" r="1" gradientUnits="userSpaceOnUse" gradientTransform="translate(52.5 40) rotate(120.784) scale(27.3542)">
<stop stop-color="#C8F5B7"/>
<stop offset="0.24583" stop-color="#98F0B0"/>
<stop offset="0.643961" stop-color="#52D17C"/>
<stop offset="1" stop-color="#119FC5"/>
</radialGradient>
<clipPath id="v155-clip0_4303_1230">
<rect width="96" height="96" fill="white"/>
</clipPath>
<clipPath id="v155-clip1_4303_1230">
<rect width="96" height="96" fill="white"/>
</clipPath>
<clipPath id="v155-clip2_4303_1230">
<rect width="95.9998" height="96" fill="white"/>
</clipPath>
</defs>
</svg><text x="88" y="47" font-family="Segoe UI, Helvetica Neue, Arial, sans-serif" font-size="15" font-weight="600" fill="#1d1a16">Dataverse</text><rect x="189.6" y="18" width="139.6" height="46" rx="23" fill="#ffffff" stroke="#e0d9cc"/><svg x="198.6" y="26" width="30" height="30" viewBox="0 0 18 18"><defs><linearGradient id="v156-ef16bf9d-a8b6-4181-b6cd-66fc5203f956" x1="2.59" y1="10.16" x2="15.41" y2="10.16" gradientUnits="userSpaceOnUse"><stop offset="0" stop-color="#005ba1" /><stop offset="0.07" stop-color="#0060a9" /><stop offset="0.36" stop-color="#0071c8" /><stop offset="0.52" stop-color="#0078d4" /><stop offset="0.64" stop-color="#0074cd" /><stop offset="0.82" stop-color="#006abb" /><stop offset="1" stop-color="#005ba1" /></linearGradient><radialGradient id="v156-bf3846c3-4d74-4743-ab9a-f334c248bd92" cx="9.36" cy="10.57" r="7.07" gradientUnits="userSpaceOnUse"><stop offset="0" stop-color="#f2f2f2" /><stop offset="0.58" stop-color="#eee" /><stop offset="1" stop-color="#e6e6e6" /></radialGradient></defs><path d="M9,5.14c-3.54,0-6.41-1-6.41-2.32V15.18c0,1.27,2.82,2.3,6.32,2.32H9c3.54,0,6.41-1,6.41-2.32V2.82C15.41,4.11,12.54,5.14,9,5.14Z" fill="url(#v156-ef16bf9d-a8b6-4181-b6cd-66fc5203f956)" /><path d="M15.41,2.82c0,1.29-2.87,2.32-6.41,2.32s-6.41-1-6.41-2.32S5.46.5,9,.5s6.41,1,6.41,2.32" fill="#e8e8e8" /><path d="M13.92,2.63c0,.82-2.21,1.48-4.92,1.48S4.08,3.45,4.08,2.63,6.29,1.16,9,1.16s4.92.66,4.92,1.47" fill="#50e6ff" /><path d="M9,3a11.55,11.55,0,0,0-3.89.57A11.42,11.42,0,0,0,9,4.11a11.15,11.15,0,0,0,3.89-.58A11.84,11.84,0,0,0,9,3Z" fill="#198ab3" /><path d="M12.9,11.4V8H12v4.13h2.46V11.4ZM5.76,9.73a1.83,1.83,0,0,1-.51-.31.44.44,0,0,1-.12-.32.34.34,0,0,1,.15-.3.68.68,0,0,1,.42-.12,1.62,1.62,0,0,1,1,.29V8.11a2.58,2.58,0,0,0-1-.16,1.64,1.64,0,0,0-1.09.34,1.08,1.08,0,0,0-.42.89c0,.51.32.91,1,1.21a2.88,2.88,0,0,1,.62.36.42.42,0,0,1,.15.32.38.38,0,0,1-.16.31.81.81,0,0,1-.45.11,1.66,1.66,0,0,1-1.09-.42V12a2.17,2.17,0,0,0,1.07.24,1.88,1.88,0,0,0,1.18-.33A1.08,1.08,0,0,0,6.84,11a1.05,1.05,0,0,0-.25-.7A2.42,2.42,0,0,0,5.76,9.73ZM11,11.32a2.34,2.34,0,0,0,.33-1.26A2.32,2.32,0,0,0,11,9a1.81,1.81,0,0,0-.7-.75,2,2,0,0,0-1-.26,2.11,2.11,0,0,0-1.08.27A1.86,1.86,0,0,0,7.49,9a2.46,2.46,0,0,0-.26,1.14,2.26,2.26,0,0,0,.24,1,1.76,1.76,0,0,0,.69.74,2.06,2.06,0,0,0,1,.3l.86,1h1.21L10,12.08A1.79,1.79,0,0,0,11,11.32ZM10,11.07a.94.94,0,0,1-.76.35.92.92,0,0,1-.76-.36,1.52,1.52,0,0,1-.29-1,1.53,1.53,0,0,1,.29-1,1,1,0,0,1,.78-.37.87.87,0,0,1,.75.37,1.62,1.62,0,0,1,.27,1A1.46,1.46,0,0,1,10,11.07Z" fill="url(#v156-bf3846c3-4d74-4743-ab9a-f334c248bd92)" /></svg><text x="237.6" y="47" font-family="Segoe UI, Helvetica Neue, Arial, sans-serif" font-size="15" font-weight="600" fill="#1d1a16">Azure SQL</text><text x="760" y="47" font-family="Segoe UI, Helvetica Neue, Arial, sans-serif" font-size="13" font-weight="700" fill="#215a3e" text-anchor="end" letter-spacing="2">CODE · XML</text><rect x="40" y="80" width="720" height="350" rx="14" fill="#1f1c19"/><rect x="40" y="80" width="720" height="40" rx="14" fill="#2b2622"/><rect x="40" y="106" width="720" height="14" fill="#2b2622"/><circle cx="64" cy="100" r="6" fill="#d26a3c"/><circle cx="84" cy="100" r="6" fill="#c8a24a"/><circle cx="104" cy="100" r="6" fill="#7cc49a"/><text x="400" y="106" font-family="Consolas, SF Mono, Menlo, monospace" font-size="14" fill="#cfc6b8" text-anchor="middle">Open deviations per plant with severity count</text><text x="740" y="106" font-family="Segoe UI, Helvetica Neue, Arial, sans-serif" font-size="11" font-weight="700" fill="#9a9083" text-anchor="end" letter-spacing="1.5">XML</text><text x="76" y="152" font-family="Consolas, SF Mono, Menlo, monospace" font-size="13" fill="#5c544a" text-anchor="end">1</text><text x="92" y="152" font-family="Consolas, SF Mono, Menlo, monospace" font-size="15" xml:space="preserve"><tspan fill="#ece6dc">&lt;</tspan><tspan fill="#ece6dc">fetch</tspan><tspan fill="#ece6dc"> </tspan><tspan fill="#ece6dc">aggregate</tspan><tspan fill="#ece6dc">=</tspan><tspan fill="#b5d97a">&quot;true&quot;</tspan><tspan fill="#ece6dc">&gt;</tspan></text><text x="76" y="180" font-family="Consolas, SF Mono, Menlo, monospace" font-size="13" fill="#5c544a" text-anchor="end">2</text><text x="92" y="180" font-family="Consolas, SF Mono, Menlo, monospace" font-size="15" xml:space="preserve"><tspan fill="#ece6dc">&lt;</tspan><tspan fill="#ece6dc">entity</tspan><tspan fill="#ece6dc"> </tspan><tspan fill="#ece6dc">name</tspan><tspan fill="#ece6dc">=</tspan><tspan fill="#b5d97a">&quot;cr8a1_deviation&quot;</tspan><tspan fill="#ece6dc">&gt;</tspan></text><text x="76" y="208" font-family="Consolas, SF Mono, Menlo, monospace" font-size="13" fill="#5c544a" text-anchor="end">3</text><text x="92" y="208" font-family="Consolas, SF Mono, Menlo, monospace" font-size="15" xml:space="preserve"><tspan fill="#ece6dc">&lt;</tspan><tspan fill="#ece6dc">attribute</tspan><tspan fill="#ece6dc"> </tspan><tspan fill="#ece6dc">name</tspan><tspan fill="#ece6dc">=</tspan><tspan fill="#b5d97a">&quot;cr8a1_deviationid&quot;</tspan><tspan fill="#ece6dc"> </tspan><tspan fill="#ece6dc">alias</tspan><tspan fill="#ece6dc">=</tspan><tspan fill="#b5d97a">&quot;total&quot;</tspan><tspan fill="#ece6dc"> </tspan><tspan fill="#ece6dc">aggregate</tspan><tspan fill="#ece6dc">=</tspan><tspan fill="#b5d97a">&quot;count&quot;</tspan><tspan fill="#ece6dc"> /&gt;</tspan></text><text x="76" y="236" font-family="Consolas, SF Mono, Menlo, monospace" font-size="13" fill="#5c544a" text-anchor="end">4</text><text x="92" y="236" font-family="Consolas, SF Mono, Menlo, monospace" font-size="15" xml:space="preserve"><tspan fill="#ece6dc">&lt;</tspan><tspan fill="#ece6dc">attribute</tspan><tspan fill="#ece6dc"> </tspan><tspan fill="#ece6dc">name</tspan><tspan fill="#ece6dc">=</tspan><tspan fill="#b5d97a">&quot;cr8a1_severity&quot;</tspan><tspan fill="#ece6dc"> </tspan><tspan fill="#ece6dc">alias</tspan><tspan fill="#ece6dc">=</tspan><tspan fill="#b5d97a">&quot;severity&quot;</tspan><tspan fill="#ece6dc"> </tspan><tspan fill="#ece6dc">groupby</tspan><tspan fill="#ece6dc">=</tspan><tspan fill="#b5d97a">&quot;true&quot;</tspan><tspan fill="#ece6dc"> /&gt;</tspan></text><text x="76" y="264" font-family="Consolas, SF Mono, Menlo, monospace" font-size="13" fill="#5c544a" text-anchor="end">5</text><text x="92" y="264" font-family="Consolas, SF Mono, Menlo, monospace" font-size="15" xml:space="preserve"><tspan fill="#ece6dc">&lt;</tspan><tspan fill="#ece6dc">link</tspan><tspan fill="#ece6dc">-</tspan><tspan fill="#ece6dc">entity</tspan><tspan fill="#ece6dc"> </tspan><tspan fill="#ece6dc">name</tspan><tspan fill="#ece6dc">=</tspan><tspan fill="#b5d97a">&quot;cr8a1_plant&quot;</tspan><tspan fill="#ece6dc"> </tspan><tspan fill="#d79bf0">from</tspan><tspan fill="#ece6dc">=</tspan><tspan fill="#b5d97a">&quot;cr8a1_plantid&quot;</tspan><tspan fill="#ece6dc"> </tspan><tspan fill="#ece6dc">to</tspan><tspan fill="#ece6dc">=</tspan><tspan fill="#b5d97a">&quot;cr8a1_plant&quot;</tspan><tspan fill="#ece6dc">…</tspan></text><text x="76" y="292" font-family="Consolas, SF Mono, Menlo, monospace" font-size="13" fill="#5c544a" text-anchor="end">6</text><text x="92" y="292" font-family="Consolas, SF Mono, Menlo, monospace" font-size="15" xml:space="preserve"><tspan fill="#ece6dc">&lt;</tspan><tspan fill="#ece6dc">attribute</tspan><tspan fill="#ece6dc"> </tspan><tspan fill="#ece6dc">name</tspan><tspan fill="#ece6dc">=</tspan><tspan fill="#b5d97a">&quot;cr8a1_name&quot;</tspan><tspan fill="#ece6dc"> </tspan><tspan fill="#ece6dc">alias</tspan><tspan fill="#ece6dc">=</tspan><tspan fill="#b5d97a">&quot;plant&quot;</tspan><tspan fill="#ece6dc"> </tspan><tspan fill="#ece6dc">groupby</tspan><tspan fill="#ece6dc">=</tspan><tspan fill="#b5d97a">&quot;true&quot;</tspan><tspan fill="#ece6dc"> /&gt;</tspan></text><text x="76" y="320" font-family="Consolas, SF Mono, Menlo, monospace" font-size="13" fill="#5c544a" text-anchor="end">7</text><text x="92" y="320" font-family="Consolas, SF Mono, Menlo, monospace" font-size="15" xml:space="preserve"><tspan fill="#ece6dc">&lt;/</tspan><tspan fill="#ece6dc">link</tspan><tspan fill="#ece6dc">-</tspan><tspan fill="#ece6dc">entity</tspan><tspan fill="#ece6dc">&gt;</tspan></text><text x="76" y="348" font-family="Consolas, SF Mono, Menlo, monospace" font-size="13" fill="#5c544a" text-anchor="end">8</text><text x="92" y="348" font-family="Consolas, SF Mono, Menlo, monospace" font-size="15" xml:space="preserve"><tspan fill="#ece6dc">&lt;</tspan><tspan fill="#ece6dc">filter</tspan><tspan fill="#ece6dc">&gt;</tspan></text><text x="76" y="376" font-family="Consolas, SF Mono, Menlo, monospace" font-size="13" fill="#5c544a" text-anchor="end">9</text><text x="92" y="376" font-family="Consolas, SF Mono, Menlo, monospace" font-size="15" xml:space="preserve"><tspan fill="#ece6dc">&lt;</tspan><tspan fill="#ece6dc">condition</tspan><tspan fill="#ece6dc"> </tspan><tspan fill="#ece6dc">attribute</tspan><tspan fill="#ece6dc">=</tspan><tspan fill="#b5d97a">&quot;statecode&quot;</tspan><tspan fill="#ece6dc"> </tspan><tspan fill="#ece6dc">operator</tspan><tspan fill="#ece6dc">=</tspan><tspan fill="#b5d97a">&quot;eq&quot;</tspan><tspan fill="#ece6dc"> </tspan><tspan fill="#ece6dc">value</tspan><tspan fill="#ece6dc">=</tspan><tspan fill="#b5d97a">&quot;0&quot;</tspan><tspan fill="#ece6dc"> /&gt;</tspan></text><text x="76" y="404" font-family="Consolas, SF Mono, Menlo, monospace" font-size="13" fill="#5c544a" text-anchor="end">10</text><text x="92" y="404" font-family="Consolas, SF Mono, Menlo, monospace" font-size="15" xml:space="preserve"><tspan fill="#ece6dc">&lt;</tspan><tspan fill="#ece6dc">condition</tspan><tspan fill="#ece6dc"> </tspan><tspan fill="#ece6dc">attribute</tspan><tspan fill="#ece6dc">=</tspan><tspan fill="#b5d97a">&quot;createdon&quot;</tspan><tspan fill="#ece6dc"> </tspan><tspan fill="#ece6dc">operator</tspan><tspan fill="#ece6dc">=</tspan><tspan fill="#b5d97a">&quot;last-x-months&quot;</tspan><tspan fill="#ece6dc"> </tspan><tspan fill="#ece6dc">value</tspan><tspan fill="#ece6dc">=</tspan><tspan fill="#b5d97a">&quot;6&quot;</tspan><tspan fill="#ece6dc"> /&gt;</tspan></text></svg>