<svg xmlns="http://www.w3.org/2000/svg" viewBox="0 0 800 450"><rect width="800" height="450" fill="#f0f3f5"/><rect x="0" y="0" width="800" height="6" fill="#2b6f9e"/><rect x="40" y="18" width="97.6" height="46" rx="23" fill="#ffffff" stroke="#e0d9cc"/><rect x="49" y="26" width="30" height="30" rx="8" fill="#4f56a6"/><g transform="translate(53 30) scale(.92)" fill="none" stroke="#ffffff" stroke-width="2" stroke-linecap="round" stroke-linejoin="round"><polyline points="16 18 22 12 16 6"/><polyline points="8 6 2 12 8 18"/></g><text x="88" y="47" font-family="Segoe UI, Helvetica Neue, Arial, sans-serif" font-size="15" font-weight="600" fill="#1d1a16">SPFx</text><rect x="147.6" y="18" width="148" height="46" rx="23" fill="#ffffff" stroke="#e0d9cc"/><rect x="156.6" y="26" width="30" height="30" rx="8" fill="#036c70"/><g transform="translate(160.6 30) scale(.92)" fill="none" stroke="#ffffff" stroke-width="2" stroke-linecap="round" stroke-linejoin="round"><polygon points="12 2 2 7 12 12 22 7 12 2"/><polyline points="2 17 12 22 22 17"/><polyline points="2 12 12 17 22 12"/></g><text x="195.6" y="47" font-family="Segoe UI, Helvetica Neue, Arial, sans-serif" font-size="15" font-weight="600" fill="#1d1a16">SharePoint</text><text x="760" y="47" font-family="Segoe UI, Helvetica Neue, Arial, sans-serif" font-size="13" font-weight="700" fill="#1a4460" text-anchor="end" letter-spacing="2">ARCHITECTURE</text><rect x="40" y="86" width="720" height="68.5" rx="12" fill="#d0dde7" stroke="#a2c2d7" stroke-width="1.5"/><text x="58" y="125.3" font-family="Segoe UI, Helvetica Neue, Arial, sans-serif" font-size="12" font-weight="700" fill="#1a4460" letter-spacing="1.2">SOURCE</text><rect x="216" y="96" width="125" height="48.5" rx="8" fill="#ffffff" stroke="#609dc8" stroke-width="1.2"/><text x="278.5" y="125.3" font-family="Segoe UI, Helvetica Neue, Arial, sans-serif" font-size="13" fill="#1d1a16" text-anchor="middle">This site</text><rect x="351" y="96" width="125" height="48.5" rx="8" fill="#ffffff" stroke="#609dc8" stroke-width="1.2"/><text x="413.5" y="125.3" font-family="Segoe UI, Helvetica Neue, Arial, sans-serif" font-size="13" fill="#1d1a16" text-anchor="middle">A document lib…</text><rect x="486" y="96" width="125" height="48.5" rx="8" fill="#ffffff" stroke="#609dc8" stroke-width="1.2"/><text x="548.5" y="125.3" font-family="Segoe UI, Helvetica Neue, Arial, sans-serif" font-size="13" fill="#1d1a16" text-anchor="middle">The page libra…</text><rect x="621" y="96" width="125" height="48.5" rx="8" fill="#ffffff" stroke="#609dc8" stroke-width="1.2"/><text x="683.5" y="125.3" font-family="Segoe UI, Helvetica Neue, Arial, sans-serif" font-size="13" fill="#1d1a16" text-anchor="middle">Hub sites</text><path d="M400 156.5V166.5" stroke="#d26a3c" stroke-width="2.5" fill="none"/><path d="M393 164.5L400 175.5L407 164.5Z" fill="#d26a3c"/><rect x="40" y="176.5" width="720" height="68.5" rx="12" fill="#f0f3f5" stroke="#a2c2d7" stroke-width="1.5"/><text x="58" y="215.8" font-family="Segoe UI, Helvetica Neue, Arial, sans-serif" font-size="12" font-weight="700" fill="#1a4460" letter-spacing="1.2">FILTER MODE</text><rect x="216" y="186.5" width="125" height="48.5" rx="8" fill="#ffffff" stroke="#609dc8" stroke-width="1.2"/><text x="278.5" y="215.8" font-family="Segoe UI, Helvetica Neue, Arial, sans-serif" font-size="13" fill="#1d1a16" text-anchor="middle">Type (document…</text><rect x="351" y="186.5" width="125" height="48.5" rx="8" fill="#ffffff" stroke="#609dc8" stroke-width="1.2"/><text x="413.5" y="215.8" font-family="Segoe UI, Helvetica Neue, Arial, sans-serif" font-size="13" fill="#1d1a16" text-anchor="middle">Title includes…</text><rect x="486" y="186.5" width="125" height="48.5" rx="8" fill="#ffffff" stroke="#609dc8" stroke-width="1.2"/><text x="548.5" y="215.8" font-family="Segoe UI, Helvetica Neue, Arial, sans-serif" font-size="13" fill="#1d1a16" text-anchor="middle">Managed proper…</text><rect x="621" y="186.5" width="125" height="48.5" rx="8" fill="#ffffff" stroke="#609dc8" stroke-width="1.2"/><text x="683.5" y="215.8" font-family="Segoe UI, Helvetica Neue, Arial, sans-serif" font-size="13" fill="#1d1a16" text-anchor="middle">Created/modifi…</text><path d="M400 247V257" stroke="#d26a3c" stroke-width="2.5" fill="none"/><path d="M393 255L400 266L407 255Z" fill="#d26a3c"/><rect x="40" y="267" width="720" height="68.5" rx="12" fill="#d0dde7" stroke="#a2c2d7" stroke-width="1.5"/><text x="58" y="306.3" font-family="Segoe UI, Helvetica Neue, Arial, sans-serif" font-size="12" font-weight="700" fill="#1a4460" letter-spacing="1.2">CUSTOM QUERY</text><rect x="216" y="277" width="170" height="48.5" rx="8" fill="#ffffff" stroke="#609dc8" stroke-width="1.2"/><text x="301" y="306.3" font-family="Segoe UI, Helvetica Neue, Arial, sans-serif" font-size="13" fill="#1d1a16" text-anchor="middle">KQL across the searc…</text><rect x="396" y="277" width="170" height="48.5" rx="8" fill="#ffffff" stroke="#609dc8" stroke-width="1.2"/><text x="481" y="306.3" font-family="Segoe UI, Helvetica Neue, Arial, sans-serif" font-size="13" fill="#1d1a16" text-anchor="middle">Managed properties (…</text><rect x="576" y="277" width="170" height="48.5" rx="8" fill="#ffffff" stroke="#609dc8" stroke-width="1.2"/><text x="661" y="306.3" font-family="Segoe UI, Helvetica Neue, Arial, sans-serif" font-size="13" fill="#1d1a16" text-anchor="middle">Result source</text><path d="M400 337.5V347.5" stroke="#d26a3c" stroke-width="2.5" fill="none"/><path d="M393 345.5L400 356.5L407 345.5Z" fill="#d26a3c"/><rect x="40" y="357.5" width="720" height="68.5" rx="12" fill="#f0f3f5" stroke="#a2c2d7" stroke-width="1.5"/><text x="58" y="396.8" font-family="Segoe UI, Helvetica Neue, Arial, sans-serif" font-size="12" font-weight="700" fill="#1a4460" letter-spacing="1.2">LAYOUT</text><rect x="216" y="367.5" width="125" height="48.5" rx="8" fill="#ffffff" stroke="#609dc8" stroke-width="1.2"/><text x="278.5" y="396.8" font-family="Segoe UI, Helvetica Neue, Arial, sans-serif" font-size="13" fill="#1d1a16" text-anchor="middle">Cards</text><rect x="351" y="367.5" width="125" height="48.5" rx="8" fill="#ffffff" stroke="#609dc8" stroke-width="1.2"/><text x="413.5" y="396.8" font-family="Segoe UI, Helvetica Neue, Arial, sans-serif" font-size="13" fill="#1d1a16" text-anchor="middle">List</text><rect x="486" y="367.5" width="125" height="48.5" rx="8" fill="#ffffff" stroke="#609dc8" stroke-width="1.2"/><text x="548.5" y="396.8" font-family="Segoe UI, Helvetica Neue, Arial, sans-serif" font-size="13" fill="#1d1a16" text-anchor="middle">Carousel</text><rect x="621" y="367.5" width="125" height="48.5" rx="8" fill="#ffffff" stroke="#609dc8" stroke-width="1.2"/><text x="683.5" y="396.8" font-family="Segoe UI, Helvetica Neue, Arial, sans-serif" font-size="13" fill="#1d1a16" text-anchor="middle">Filmstrip</text></svg>