<svg xmlns="http://www.w3.org/2000/svg" viewBox="0 0 800 450"><rect width="800" height="450" fill="#f0f3f5"/><rect x="0" y="0" width="800" height="6" fill="#2b6f9e"/><rect x="40" y="18" width="148" height="46" rx="23" fill="#ffffff" stroke="#e0d9cc"/><rect x="49" y="26" width="30" height="30" rx="8" fill="#036c70"/><g transform="translate(53 30) scale(.92)" fill="none" stroke="#ffffff" stroke-width="2" stroke-linecap="round" stroke-linejoin="round"><polygon points="12 2 2 7 12 12 22 7 12 2"/><polyline points="2 17 12 22 22 17"/><polyline points="2 12 12 17 22 12"/></g><text x="88" y="47" font-family="Segoe UI, Helvetica Neue, Arial, sans-serif" font-size="15" font-weight="600" fill="#1d1a16">SharePoint</text><text x="760" y="47" font-family="Segoe UI, Helvetica Neue, Arial, sans-serif" font-size="13" font-weight="700" fill="#1a4460" text-anchor="end" letter-spacing="2">CODE · JSON</text><rect x="40" y="80" width="720" height="350" rx="14" fill="#1f1c19"/><rect x="40" y="80" width="720" height="40" rx="14" fill="#2b2622"/><rect x="40" y="106" width="720" height="14" fill="#2b2622"/><circle cx="64" cy="100" r="6" fill="#d26a3c"/><circle cx="84" cy="100" r="6" fill="#c8a24a"/><circle cx="104" cy="100" r="6" fill="#7cc49a"/><text x="400" y="106" font-family="Consolas, SF Mono, Menlo, monospace" font-size="14" fill="#cfc6b8" text-anchor="middle">additionalRowClass – red background for high-prio…</text><text x="740" y="106" font-family="Segoe UI, Helvetica Neue, Arial, sans-serif" font-size="11" font-weight="700" fill="#9a9083" text-anchor="end" letter-spacing="1.5">JSON</text><text x="76" y="152" font-family="Consolas, SF Mono, Menlo, monospace" font-size="13" fill="#5c544a" text-anchor="end">1</text><text x="92" y="152" font-family="Consolas, SF Mono, Menlo, monospace" font-size="15" xml:space="preserve"><tspan fill="#ece6dc">{</tspan></text><text x="76" y="180" font-family="Consolas, SF Mono, Menlo, monospace" font-size="13" fill="#5c544a" text-anchor="end">2</text><text x="92" y="180" font-family="Consolas, SF Mono, Menlo, monospace" font-size="15" xml:space="preserve"><tspan fill="#b5d97a">&quot;$schema&quot;</tspan><tspan fill="#ece6dc">: </tspan><tspan fill="#b5d97a">&quot;https://developer.microsoft.com/json-schemas/sp/v2/row-for…</tspan></text><text x="76" y="208" font-family="Consolas, SF Mono, Menlo, monospace" font-size="13" fill="#5c544a" text-anchor="end">3</text><text x="92" y="208" font-family="Consolas, SF Mono, Menlo, monospace" font-size="15" xml:space="preserve"><tspan fill="#b5d97a">&quot;additionalRowClass&quot;</tspan><tspan fill="#ece6dc">: </tspan><tspan fill="#b5d97a">&quot;=if([$Priority] == &#39;High&#39; &amp;&amp; [$Status] != &#39;Clos…</tspan></text><text x="76" y="236" font-family="Consolas, SF Mono, Menlo, monospace" font-size="13" fill="#5c544a" text-anchor="end">4</text><text x="92" y="236" font-family="Consolas, SF Mono, Menlo, monospace" font-size="15" xml:space="preserve"><tspan fill="#ece6dc">}</tspan></text></svg>