<svg xmlns="http://www.w3.org/2000/svg" viewBox="0 0 800 450"><rect width="800" height="450" fill="#f1f1f4"/><rect x="0" y="0" width="800" height="6" fill="#4f56a6"/><rect x="40" y="18" width="97.6" height="46" rx="23" fill="#ffffff" stroke="#e0d9cc"/><rect x="49" y="26" width="30" height="30" rx="8" fill="#4f56a6"/><g transform="translate(53 30) scale(.92)" fill="none" stroke="#ffffff" stroke-width="2" stroke-linecap="round" stroke-linejoin="round"><polyline points="16 18 22 12 16 6"/><polyline points="8 6 2 12 8 18"/></g><text x="88" y="47" font-family="Segoe UI, Helvetica Neue, Arial, sans-serif" font-size="15" font-weight="600" fill="#1d1a16">SPFx</text><rect x="147.6" y="18" width="148" height="46" rx="23" fill="#ffffff" stroke="#e0d9cc"/><rect x="156.6" y="26" width="30" height="30" rx="8" fill="#036c70"/><g transform="translate(160.6 30) scale(.92)" fill="none" stroke="#ffffff" stroke-width="2" stroke-linecap="round" stroke-linejoin="round"><polygon points="12 2 2 7 12 12 22 7 12 2"/><polyline points="2 17 12 22 22 17"/><polyline points="2 12 12 17 22 12"/></g><text x="195.6" y="47" font-family="Segoe UI, Helvetica Neue, Arial, sans-serif" font-size="15" font-weight="600" fill="#1d1a16">SharePoint</text><rect x="305.6" y="18" width="190" height="46" rx="23" fill="#ffffff" stroke="#e0d9cc"/><rect x="314.6" y="26" width="30" height="30" rx="8" fill="#0f6cbd"/><g transform="translate(318.6 30) scale(.92)" fill="none" stroke="#ffffff" stroke-width="2" stroke-linecap="round" stroke-linejoin="round"><circle cx="18" cy="5" r="3"/><circle cx="6" cy="12" r="3"/><circle cx="18" cy="19" r="3"/><line x1="8.59" y1="13.51" x2="15.42" y2="17.49"/><line x1="15.41" y1="6.51" x2="8.59" y2="10.49"/></g><text x="353.6" y="47" font-family="Segoe UI, Helvetica Neue, Arial, sans-serif" font-size="15" font-weight="600" fill="#1d1a16">Microsoft Graph</text><text x="760" y="47" font-family="Segoe UI, Helvetica Neue, Arial, sans-serif" font-size="13" font-weight="700" fill="#272b53" text-anchor="end" letter-spacing="2">CHEAT SHEET</text><rect x="40" y="90" width="229.3" height="150" rx="12" fill="#ffffff" stroke="#acafcd" stroke-width="1.2"/><rect x="40" y="90" width="229.3" height="6" rx="3" fill="#4f56a6"/><text x="58" y="128" font-family="Consolas, SF Mono, Menlo, monospace" font-size="13" font-weight="700" fill="#7479b4">01</text><text x="58" y="160" font-family="Georgia, Times New Roman, serif" font-size="19" font-weight="700" fill="#1d1a16">Import only what you</text><text x="58" y="184" font-family="Georgia, Times New Roman, serif" font-size="19" font-weight="700" fill="#1d1a16">use</text><text x="58" y="212" font-family="Segoe UI, Helvetica Neue, Arial, sans-serif" font-size="12" fill="#7a7266">import { Button } from…</text><rect x="285.3" y="90" width="229.3" height="150" rx="12" fill="#ffffff" stroke="#acafcd" stroke-width="1.2"/><rect x="285.3" y="90" width="229.3" height="6" rx="3" fill="#d26a3c"/><text x="303.3" y="128" font-family="Consolas, SF Mono, Menlo, monospace" font-size="13" font-weight="700" fill="#7479b4">02</text><text x="303.3" y="160" font-family="Georgia, Times New Roman, serif" font-size="19" font-weight="700" fill="#1d1a16">Dynamic imports</text><text x="303.3" y="212" font-family="Segoe UI, Helvetica Neue, Arial, sans-serif" font-size="12" fill="#7a7266">Load heavy dialogs, charts,…</text><rect x="530.7" y="90" width="229.3" height="150" rx="12" fill="#ffffff" stroke="#acafcd" stroke-width="1.2"/><rect x="530.7" y="90" width="229.3" height="6" rx="3" fill="#4f56a6"/><text x="548.7" y="128" font-family="Consolas, SF Mono, Menlo, monospace" font-size="13" font-weight="700" fill="#7479b4">03</text><text x="548.7" y="160" font-family="Georgia, Times New Roman, serif" font-size="19" font-weight="700" fill="#1d1a16">No duplicates</text><text x="548.7" y="212" font-family="Segoe UI, Helvetica Neue, Arial, sans-serif" font-size="12" fill="#7a7266">Don&#39;t bundle a second React,…</text><rect x="40" y="256" width="229.3" height="150" rx="12" fill="#ffffff" stroke="#acafcd" stroke-width="1.2"/><rect x="40" y="256" width="229.3" height="6" rx="3" fill="#d26a3c"/><text x="58" y="294" font-family="Consolas, SF Mono, Menlo, monospace" font-size="13" font-weight="700" fill="#7479b4">04</text><text x="58" y="326" font-family="Georgia, Times New Roman, serif" font-size="19" font-weight="700" fill="#1d1a16">Replace heavy libs</text><text x="58" y="378" font-family="Segoe UI, Helvetica Neue, Arial, sans-serif" font-size="12" fill="#7a7266">dayjs instead of moment,…</text><rect x="285.3" y="256" width="229.3" height="150" rx="12" fill="#ffffff" stroke="#acafcd" stroke-width="1.2"/><rect x="285.3" y="256" width="229.3" height="6" rx="3" fill="#4f56a6"/><text x="303.3" y="294" font-family="Consolas, SF Mono, Menlo, monospace" font-size="13" font-weight="700" fill="#7479b4">05</text><text x="303.3" y="326" font-family="Georgia, Times New Roman, serif" font-size="19" font-weight="700" fill="#1d1a16">Externalize</text><text x="303.3" y="378" font-family="Segoe UI, Helvetica Neue, Arial, sans-serif" font-size="12" fill="#7a7266">Very large shared libs can b…</text><rect x="530.7" y="256" width="229.3" height="150" rx="12" fill="#ffffff" stroke="#acafcd" stroke-width="1.2"/><rect x="530.7" y="256" width="229.3" height="6" rx="3" fill="#d26a3c"/><text x="548.7" y="294" font-family="Consolas, SF Mono, Menlo, monospace" font-size="13" font-weight="700" fill="#7479b4">06</text><text x="548.7" y="326" font-family="Georgia, Times New Roman, serif" font-size="19" font-weight="700" fill="#1d1a16">Library components</text><text x="548.7" y="378" font-family="Segoe UI, Helvetica Neue, Arial, sans-serif" font-size="12" fill="#7a7266">Share runtime code across…</text></svg>