<svg xmlns="http://www.w3.org/2000/svg" viewBox="0 0 800 450"><rect width="800" height="450" fill="#f1f1f4"/><rect x="0" y="0" width="800" height="6" fill="#4f56a6"/><rect x="40" y="18" width="97.6" height="46" rx="23" fill="#ffffff" stroke="#e0d9cc"/><rect x="49" y="26" width="30" height="30" rx="8" fill="#4f56a6"/><g transform="translate(53 30) scale(.92)" fill="none" stroke="#ffffff" stroke-width="2" stroke-linecap="round" stroke-linejoin="round"><polyline points="16 18 22 12 16 6"/><polyline points="8 6 2 12 8 18"/></g><text x="88" y="47" font-family="Segoe UI, Helvetica Neue, Arial, sans-serif" font-size="15" font-weight="600" fill="#1d1a16">SPFx</text><rect x="147.6" y="18" width="173.2" height="46" rx="23" fill="#ffffff" stroke="#e0d9cc"/><svg x="156.6" y="26" width="30" height="30" viewBox="0 0 18 18"><defs><linearGradient id="v62-ad4c4f96-09aa-4f91-ba10-5cb8ad530f74" x1="9" y1="15.83" x2="9" y2="5.79" gradientUnits="userSpaceOnUse"><stop offset="0" stop-color="#b3b3b3" /><stop offset="0.26" stop-color="#c1c1c1" /><stop offset="1" stop-color="#e6e6e6" /></linearGradient></defs><path d="M.5,5.79h17a0,0,0,0,1,0,0v9.48a.57.57,0,0,1-.57.57H1.07a.57.57,0,0,1-.57-.57V5.79A0,0,0,0,1,.5,5.79Z" fill="url(#v62-ad4c4f96-09aa-4f91-ba10-5cb8ad530f74)" /><path d="M1.07,2.17H16.93a.57.57,0,0,1,.57.57V5.79a0,0,0,0,1,0,0H.5a0,0,0,0,1,0,0V2.73A.57.57,0,0,1,1.07,2.17Z" fill="#37c2b1" /><path d="M2.81,6.89H15.18a.27.27,0,0,1,.26.27v1.4a.27.27,0,0,1-.26.27H2.81a.27.27,0,0,1-.26-.27V7.16A.27.27,0,0,1,2.81,6.89Z" fill="#fff" /><path d="M2.82,9.68H15.19a.27.27,0,0,1,.26.27v1.41a.27.27,0,0,1-.26.27H2.82a.27.27,0,0,1-.26-.27V10A.27.27,0,0,1,2.82,9.68Z" fill="#37c2b1" /><path d="M2.82,12.5H15.19a.27.27,0,0,1,.26.27v1.41a.27.27,0,0,1-.26.27H2.82a.27.27,0,0,1-.26-.27V12.77A.27.27,0,0,1,2.82,12.5Z" fill="#258277" /></svg><text x="195.6" y="47" font-family="Segoe UI, Helvetica Neue, Arial, sans-serif" font-size="15" font-weight="600" fill="#1d1a16">Azure Storage</text><rect x="330.8" y="18" width="139.6" height="46" rx="23" fill="#ffffff" stroke="#e0d9cc"/><svg x="339.8" y="26" width="30" height="30" viewBox="0 0 18 18"><defs><linearGradient id="v63-ef16bf9d-a8b6-4181-b6cd-66fc5203f956" x1="2.59" y1="10.16" x2="15.41" y2="10.16" gradientUnits="userSpaceOnUse"><stop offset="0" stop-color="#005ba1" /><stop offset="0.07" stop-color="#0060a9" /><stop offset="0.36" stop-color="#0071c8" /><stop offset="0.52" stop-color="#0078d4" /><stop offset="0.64" stop-color="#0074cd" /><stop offset="0.82" stop-color="#006abb" /><stop offset="1" stop-color="#005ba1" /></linearGradient><radialGradient id="v63-bf3846c3-4d74-4743-ab9a-f334c248bd92" cx="9.36" cy="10.57" r="7.07" gradientUnits="userSpaceOnUse"><stop offset="0" stop-color="#f2f2f2" /><stop offset="0.58" stop-color="#eee" /><stop offset="1" stop-color="#e6e6e6" /></radialGradient></defs><path d="M9,5.14c-3.54,0-6.41-1-6.41-2.32V15.18c0,1.27,2.82,2.3,6.32,2.32H9c3.54,0,6.41-1,6.41-2.32V2.82C15.41,4.11,12.54,5.14,9,5.14Z" fill="url(#v63-ef16bf9d-a8b6-4181-b6cd-66fc5203f956)" /><path d="M15.41,2.82c0,1.29-2.87,2.32-6.41,2.32s-6.41-1-6.41-2.32S5.46.5,9,.5s6.41,1,6.41,2.32" fill="#e8e8e8" /><path d="M13.92,2.63c0,.82-2.21,1.48-4.92,1.48S4.08,3.45,4.08,2.63,6.29,1.16,9,1.16s4.92.66,4.92,1.47" fill="#50e6ff" /><path d="M9,3a11.55,11.55,0,0,0-3.89.57A11.42,11.42,0,0,0,9,4.11a11.15,11.15,0,0,0,3.89-.58A11.84,11.84,0,0,0,9,3Z" fill="#198ab3" /><path d="M12.9,11.4V8H12v4.13h2.46V11.4ZM5.76,9.73a1.83,1.83,0,0,1-.51-.31.44.44,0,0,1-.12-.32.34.34,0,0,1,.15-.3.68.68,0,0,1,.42-.12,1.62,1.62,0,0,1,1,.29V8.11a2.58,2.58,0,0,0-1-.16,1.64,1.64,0,0,0-1.09.34,1.08,1.08,0,0,0-.42.89c0,.51.32.91,1,1.21a2.88,2.88,0,0,1,.62.36.42.42,0,0,1,.15.32.38.38,0,0,1-.16.31.81.81,0,0,1-.45.11,1.66,1.66,0,0,1-1.09-.42V12a2.17,2.17,0,0,0,1.07.24,1.88,1.88,0,0,0,1.18-.33A1.08,1.08,0,0,0,6.84,11a1.05,1.05,0,0,0-.25-.7A2.42,2.42,0,0,0,5.76,9.73ZM11,11.32a2.34,2.34,0,0,0,.33-1.26A2.32,2.32,0,0,0,11,9a1.81,1.81,0,0,0-.7-.75,2,2,0,0,0-1-.26,2.11,2.11,0,0,0-1.08.27A1.86,1.86,0,0,0,7.49,9a2.46,2.46,0,0,0-.26,1.14,2.26,2.26,0,0,0,.24,1,1.76,1.76,0,0,0,.69.74,2.06,2.06,0,0,0,1,.3l.86,1h1.21L10,12.08A1.79,1.79,0,0,0,11,11.32ZM10,11.07a.94.94,0,0,1-.76.35.92.92,0,0,1-.76-.36,1.52,1.52,0,0,1-.29-1,1.53,1.53,0,0,1,.29-1,1,1,0,0,1,.78-.37.87.87,0,0,1,.75.37,1.62,1.62,0,0,1,.27,1A1.46,1.46,0,0,1,10,11.07Z" fill="url(#v63-bf3846c3-4d74-4743-ab9a-f334c248bd92)" /></svg><text x="378.8" y="47" font-family="Segoe UI, Helvetica Neue, Arial, sans-serif" font-size="15" font-weight="600" fill="#1d1a16">Azure SQL</text><text x="760" y="47" font-family="Segoe UI, Helvetica Neue, Arial, sans-serif" font-size="13" font-weight="700" fill="#272b53" text-anchor="end" letter-spacing="2">ARCHITECTURE</text><rect x="40" y="86" width="720" height="70" rx="12" fill="#d4d5e2" stroke="#acafcd" stroke-width="1.5"/><text x="58" y="126" font-family="Segoe UI, Helvetica Neue, Arial, sans-serif" font-size="12" font-weight="700" fill="#272b53" letter-spacing="1.2">SPFX WEB PART</text><rect x="216" y="96" width="170" height="50" rx="8" fill="#ffffff" stroke="#7479b4" stroke-width="1.2"/><text x="301" y="126" font-family="Segoe UI, Helvetica Neue, Arial, sans-serif" font-size="13" fill="#1d1a16" text-anchor="middle">AadHttpClient</text><rect x="396" y="96" width="170" height="50" rx="8" fill="#ffffff" stroke="#7479b4" stroke-width="1.2"/><text x="481" y="126" font-family="Segoe UI, Helvetica Neue, Arial, sans-serif" font-size="13" fill="#1d1a16" text-anchor="middle">Filters &amp; paging UI</text><path d="M400 158V168" stroke="#d26a3c" stroke-width="2.5" fill="none"/><path d="M393 166L400 177L407 166Z" fill="#d26a3c"/><rect x="40" y="178" width="720" height="70" rx="12" fill="#f1f1f4" stroke="#acafcd" stroke-width="1.5"/><text x="58" y="218" font-family="Segoe UI, Helvetica Neue, Arial, sans-serif" font-size="12" font-weight="700" fill="#272b53" letter-spacing="1.2">AZURE FUNCTION /…</text><rect x="216" y="188" width="170" height="50" rx="8" fill="#ffffff" stroke="#7479b4" stroke-width="1.2"/><text x="301" y="218" font-family="Segoe UI, Helvetica Neue, Arial, sans-serif" font-size="13" fill="#1d1a16" text-anchor="middle">Authorization by rol…</text><rect x="396" y="188" width="170" height="50" rx="8" fill="#ffffff" stroke="#7479b4" stroke-width="1.2"/><text x="481" y="218" font-family="Segoe UI, Helvetica Neue, Arial, sans-serif" font-size="13" fill="#1d1a16" text-anchor="middle">Parameterized querie…</text><rect x="576" y="188" width="170" height="50" rx="8" fill="#ffffff" stroke="#7479b4" stroke-width="1.2"/><text x="661" y="218" font-family="Segoe UI, Helvetica Neue, Arial, sans-serif" font-size="13" fill="#1d1a16" text-anchor="middle">Paging (OFFSET/FETCH)</text><path d="M400 250V260" stroke="#d26a3c" stroke-width="2.5" fill="none"/><path d="M393 258L400 269L407 258Z" fill="#d26a3c"/><rect x="40" y="270" width="720" height="70" rx="12" fill="#d4d5e2" stroke="#acafcd" stroke-width="1.5"/><text x="58" y="310" font-family="Segoe UI, Helvetica Neue, Arial, sans-serif" font-size="12" font-weight="700" fill="#272b53" letter-spacing="1.2">AZURE SQL DATABASE</text><rect x="216" y="280" width="170" height="50" rx="8" fill="#ffffff" stroke="#7479b4" stroke-width="1.2"/><text x="301" y="310" font-family="Segoe UI, Helvetica Neue, Arial, sans-serif" font-size="13" fill="#1d1a16" text-anchor="middle">Contained user for t…</text><rect x="396" y="280" width="170" height="50" rx="8" fill="#ffffff" stroke="#7479b4" stroke-width="1.2"/><text x="481" y="310" font-family="Segoe UI, Helvetica Neue, Arial, sans-serif" font-size="13" fill="#1d1a16" text-anchor="middle">Least-privilege role…</text><rect x="576" y="280" width="170" height="50" rx="8" fill="#ffffff" stroke="#7479b4" stroke-width="1.2"/><text x="661" y="310" font-family="Segoe UI, Helvetica Neue, Arial, sans-serif" font-size="13" fill="#1d1a16" text-anchor="middle">Row-level security (…</text></svg>