<svg xmlns="http://www.w3.org/2000/svg" viewBox="0 0 800 450"><rect width="800" height="450" fill="#f0f3f5"/><rect x="0" y="0" width="800" height="6" fill="#1f7fa8"/><rect x="40" y="18" width="215.2" height="46" rx="23" fill="#ffffff" stroke="#e0d9cc"/><svg x="49" y="26" width="30" height="30" viewBox="0 0 18 18">
  <path d="m3.802,14.032c.388.242,1.033.511,1.715.511.621,0,1.198-.18,1.676-.487,0,0,.001,0,.002-.001l1.805-1.128v4.073c-.286,0-.574-.078-.824-.234l-4.374-2.734Z" fill="#225086"/>
  <path d="m7.853,1.507L.353,9.967c-.579.654-.428,1.642.323,2.111,0,0,2.776,1.735,3.126,1.954.388.242,1.033.511,1.715.511.621,0,1.198-.18,1.676-.487,0,0,.001,0,.002-.001l1.805-1.128-4.364-2.728,4.365-4.924V1s0,0,0,0c-.424,0-.847.169-1.147.507Z" fill="#6df"/>
  <polygon points="4.636 10.199 4.688 10.231 9 12.927 9.001 12.927 9.001 12.927 9.001 5.276 9 5.275 4.636 10.199" fill="#cbf8ff"/>
  <path d="m17.324,12.078c.751-.469.902-1.457.323-2.111l-4.921-5.551c-.397-.185-.842-.291-1.313-.291-.925,0-1.752.399-2.302,1.026l-.109.123h0s4.364,4.924,4.364,4.924h0s0,0,0,0l-4.365,2.728v4.073c.287,0,.573-.078.823-.234l7.5-4.688Z" fill="#074793"/>
  <path d="m9.001,1v4.275s.109-.123.109-.123c.55-.627,1.377-1.026,2.302-1.026.472,0,.916.107,1.313.291l-2.579-2.909c-.299-.338-.723-.507-1.146-.507Z" fill="#0294e4"/>
  <polygon points="13.365 10.199 13.365 10.199 13.365 10.199 9.001 5.276 9.001 12.926 13.365 10.199" fill="#96bcc2"/>
</svg><text x="88" y="47" font-family="Segoe UI, Helvetica Neue, Arial, sans-serif" font-size="15" font-weight="600" fill="#1d1a16">Microsoft Entra ID</text><rect x="265.2" y="18" width="190" height="46" rx="23" fill="#ffffff" stroke="#e0d9cc"/><svg x="274.2" y="26" width="30" height="30" viewBox="0 0 18 18"><defs><linearGradient id="v190-b403aca7-f387-4434-96b4-ae157edc835f" x1="-175.993" y1="-343.723" x2="-175.993" y2="-359.232" gradientTransform="translate(212.573 370.548) scale(1.156 1.029)" gradientUnits="userSpaceOnUse"><stop offset="0" stop-color="#fea11b" /><stop offset="0.284" stop-color="#fea51a" /><stop offset="0.547" stop-color="#feb018" /><stop offset="0.8" stop-color="#ffc314" /><stop offset="1" stop-color="#ffd70f" /></linearGradient></defs><g><path d="M2.37,7.475H3.2a.267.267,0,0,1,.267.267v6.148a.533.533,0,0,1-.533.533H2.1a0,0,0,0,1,0,0V7.741a.267.267,0,0,1,.267-.267Z" transform="translate(12.507 16.705) rotate(134.919)" fill="#50e6ff" /><path d="M2.325,3.6h.833a.267.267,0,0,1,.267.267v6.583a0,0,0,0,1,0,0H2.591a.533.533,0,0,1-.533-.533V3.865A.267.267,0,0,1,2.325,3.6Z" transform="translate(5.759 0.114) rotate(44.919)" fill="#1490df" /></g><g><path d="M14.53,7.475h.833a.533.533,0,0,1,.533.533v6.148a.267.267,0,0,1-.267.267H14.8a.267.267,0,0,1-.267-.267V7.475a0,0,0,0,1,0,0Z" transform="translate(12.223 -7.555) rotate(45.081)" fill="#50e6ff" /><path d="M15.108,3.6h.833a0,0,0,0,1,0,0v6.583a.267.267,0,0,1-.267.267h-.833a.267.267,0,0,1-.267-.267V4.131a.533.533,0,0,1,.533-.533Z" transform="translate(31.022 1.222) rotate(135.081)" fill="#1490df" /></g><path d="M8.459,9.9H4.87a.193.193,0,0,1-.2-.181.166.166,0,0,1,.018-.075L8.991,1.13a.206.206,0,0,1,.186-.106h4.245a.193.193,0,0,1,.2.181.165.165,0,0,1-.035.1L8.534,7.966h4.928a.193.193,0,0,1,.2.181.176.176,0,0,1-.052.122L5.421,16.788c-.077.046-.624.5-.356-.189h0Z" fill="url(#v190-b403aca7-f387-4434-96b4-ae157edc835f)" /></svg><text x="313.2" y="47" font-family="Segoe UI, Helvetica Neue, Arial, sans-serif" font-size="15" font-weight="600" fill="#1d1a16">Azure Functions</text><text x="760" y="47" font-family="Segoe UI, Helvetica Neue, Arial, sans-serif" font-size="13" font-weight="700" fill="#1a4b61" text-anchor="end" letter-spacing="2">ARCHITECTURE</text><rect x="40" y="86" width="720" height="70" rx="12" fill="#d0e0e7" stroke="#a2c8d8" stroke-width="1.5"/><text x="58" y="126" font-family="Segoe UI, Helvetica Neue, Arial, sans-serif" font-size="12" font-weight="700" fill="#1a4b61" letter-spacing="1.2">APPLICATION OBJEC…</text><rect x="216" y="96" width="125" height="50" rx="8" fill="#ffffff" stroke="#5fa9c9" stroke-width="1.2"/><text x="278.5" y="126" font-family="Segoe UI, Helvetica Neue, Arial, sans-serif" font-size="13" fill="#1d1a16" text-anchor="middle">Client ID</text><rect x="351" y="96" width="125" height="50" rx="8" fill="#ffffff" stroke="#5fa9c9" stroke-width="1.2"/><text x="413.5" y="126" font-family="Segoe UI, Helvetica Neue, Arial, sans-serif" font-size="13" fill="#1d1a16" text-anchor="middle">Credentials: c…</text><rect x="486" y="96" width="125" height="50" rx="8" fill="#ffffff" stroke="#5fa9c9" stroke-width="1.2"/><text x="548.5" y="126" font-family="Segoe UI, Helvetica Neue, Arial, sans-serif" font-size="13" fill="#1d1a16" text-anchor="middle">Redirect URIs</text><rect x="621" y="96" width="125" height="50" rx="8" fill="#ffffff" stroke="#5fa9c9" stroke-width="1.2"/><text x="683.5" y="126" font-family="Segoe UI, Helvetica Neue, Arial, sans-serif" font-size="13" fill="#1d1a16" text-anchor="middle">API permission…</text><path d="M400 158V168" stroke="#d26a3c" stroke-width="2.5" fill="none"/><path d="M393 166L400 177L407 166Z" fill="#d26a3c"/><rect x="40" y="178" width="720" height="70" rx="12" fill="#f0f3f5" stroke="#a2c8d8" stroke-width="1.5"/><text x="58" y="218" font-family="Segoe UI, Helvetica Neue, Arial, sans-serif" font-size="12" font-weight="700" fill="#1a4b61" letter-spacing="1.2">SERVICE PRINCIPAL…</text><rect x="216" y="188" width="170" height="50" rx="8" fill="#ffffff" stroke="#5fa9c9" stroke-width="1.2"/><text x="301" y="218" font-family="Segoe UI, Helvetica Neue, Arial, sans-serif" font-size="13" fill="#1d1a16" text-anchor="middle">Consent grants</text><rect x="396" y="188" width="170" height="50" rx="8" fill="#ffffff" stroke="#5fa9c9" stroke-width="1.2"/><text x="481" y="218" font-family="Segoe UI, Helvetica Neue, Arial, sans-serif" font-size="13" fill="#1d1a16" text-anchor="middle">Assignment (users/gr…</text><rect x="576" y="188" width="170" height="50" rx="8" fill="#ffffff" stroke="#5fa9c9" stroke-width="1.2"/><text x="661" y="218" font-family="Segoe UI, Helvetica Neue, Arial, sans-serif" font-size="13" fill="#1d1a16" text-anchor="middle">Conditional Access t…</text><path d="M400 250V260" stroke="#d26a3c" stroke-width="2.5" fill="none"/><path d="M393 258L400 269L407 258Z" fill="#d26a3c"/><rect x="40" y="270" width="720" height="70" rx="12" fill="#d0e0e7" stroke="#a2c8d8" stroke-width="1.5"/><text x="58" y="310" font-family="Segoe UI, Helvetica Neue, Arial, sans-serif" font-size="12" font-weight="700" fill="#1a4b61" letter-spacing="1.2">MICROSOFT IDENTIT…</text><rect x="216" y="280" width="170" height="50" rx="8" fill="#ffffff" stroke="#5fa9c9" stroke-width="1.2"/><text x="301" y="310" font-family="Segoe UI, Helvetica Neue, Arial, sans-serif" font-size="13" fill="#1d1a16" text-anchor="middle">Delegated tokens (us…</text><rect x="396" y="280" width="170" height="50" rx="8" fill="#ffffff" stroke="#5fa9c9" stroke-width="1.2"/><text x="481" y="310" font-family="Segoe UI, Helvetica Neue, Arial, sans-serif" font-size="13" fill="#1d1a16" text-anchor="middle">Application tokens (…</text></svg>