<svg xmlns="http://www.w3.org/2000/svg" viewBox="0 0 800 450"><rect width="800" height="450" fill="#f0f3f5"/><rect x="0" y="0" width="800" height="6" fill="#1f7fa8"/><rect x="40" y="18" width="148" height="46" rx="23" fill="#ffffff" stroke="#e0d9cc"/><svg x="49" y="26" width="30" height="30" viewBox="0 0 18 18"><defs><linearGradient id="v201-afc27830-8354-4c08-adf9-e299527ebe55" x1="7.94" y1="7.7" x2="7.94" y2="3.75" gradientUnits="userSpaceOnUse"><stop offset="0" stop-color="#5e9624" /><stop offset="1" stop-color="#76bc2d" /></linearGradient><linearGradient id="v201-edc561ac-a1d6-439f-a08b-594ef0214ee3" x1="7.94" y1="14.26" x2="7.94" y2="10.31" gradientUnits="userSpaceOnUse"><stop offset="0" stop-color="#5e9624" /><stop offset="1" stop-color="#76bc2d" /></linearGradient></defs><g><g id="v201-aa7ea84e-faaa-4698-89ff-203b553089f2"><g><g><path d="M1.06,1.42H2.35a0,0,0,0,1,0,0V5a.29.29,0,0,1-.29.29H.77A.29.29,0,0,1,.48,5V2A.57.57,0,0,1,1.06,1.42Z" fill="#a3a3a3" /><path d="M1.06,1.42H2.35a0,0,0,0,1,0,0V5a.29.29,0,0,1-.29.29H.77A.29.29,0,0,1,.48,5V2A.57.57,0,0,1,1.06,1.42Z" fill="#a3a3a3" opacity="0.5" /></g><g><path d="M15.65,1.42h1.29a.57.57,0,0,1,.57.57V5a.29.29,0,0,1-.29.29H15.94A.29.29,0,0,1,15.65,5V1.42A0,0,0,0,1,15.65,1.42Z" fill="#a3a3a3" /><path d="M15.65,1.42h1.29a.57.57,0,0,1,.57.57V5a.29.29,0,0,1-.29.29H15.94A.29.29,0,0,1,15.65,5V1.42A0,0,0,0,1,15.65,1.42Z" fill="#a3a3a3" opacity="0.5" /></g><path d="M8.66-6.19H9.91a0,0,0,0,1,0,0v17a0,0,0,0,1,0,0H8.66a.57.57,0,0,1-.57-.57V-5.62A.57.57,0,0,1,8.66-6.19Z" transform="translate(11.32 -6.68) rotate(90)" fill="#949494" /><g><path d="M.77,12.69H2.06a.29.29,0,0,1,.29.29v3.61a0,0,0,0,1,0,0H1.06A.57.57,0,0,1,.48,16V13A.29.29,0,0,1,.77,12.69Z" fill="#a3a3a3" /><path d="M.77,12.69H2.06a.29.29,0,0,1,.29.29v3.61a0,0,0,0,1,0,0H1.06A.57.57,0,0,1,.48,16V13A.29.29,0,0,1,.77,12.69Z" fill="#a3a3a3" opacity="0.5" /></g><g><path d="M15.94,12.69h1.29a.29.29,0,0,1,.29.29v3a.57.57,0,0,1-.57.57H15.65a0,0,0,0,1,0,0V13A.29.29,0,0,1,15.94,12.69Z" fill="#a3a3a3" /><path d="M15.94,12.69h1.29a.29.29,0,0,1,.29.29v3a.57.57,0,0,1-.57.57H15.65a0,0,0,0,1,0,0V13A.29.29,0,0,1,15.94,12.69Z" fill="#a3a3a3" opacity="0.5" /></g><path d="M8.66,7.16H9.91a0,0,0,0,1,0,0v17a0,0,0,0,1,0,0H8.66a.57.57,0,0,1-.57-.57V7.73A.57.57,0,0,1,8.66,7.16Z" transform="translate(-6.68 24.68) rotate(-90)" fill="#949494" /><path d="M14.91,8.84,13.09,7a.09.09,0,0,0-.16.07V8.2a.09.09,0,0,1-.1.1H7.59a1.05,1.05,0,0,0-.83-.41,1.1,1.1,0,1,0,0,2.19,1.08,1.08,0,0,0,.84-.42h5.23a.09.09,0,0,1,.1.09v1.11a.09.09,0,0,0,.16.06l1.82-1.81A.2.2,0,0,0,14.91,8.84Z" fill="#5ea0ef" /><path d="M11.55,5.59,9.73,3.78a.09.09,0,0,0-.16.07V5a.09.09,0,0,1-.09.1H6.2a1.07,1.07,0,0,0-.84-.41,1.1,1.1,0,1,0,.85,1.77H9.48a.09.09,0,0,1,.09.09V7.61a.09.09,0,0,0,.16.06l1.82-1.81A.2.2,0,0,0,11.55,5.59Z" fill="url(#v201-afc27830-8354-4c08-adf9-e299527ebe55)" /><path d="M11.55,12.15,9.73,10.34a.09.09,0,0,0-.16.07v1.1a.1.1,0,0,1-.09.1H6.2a1.07,1.07,0,0,0-.84-.41A1.1,1.1,0,1,0,6.21,13H9.48a.09.09,0,0,1,.09.09v1.11a.09.09,0,0,0,.16.06l1.82-1.81A.2.2,0,0,0,11.55,12.15Z" fill="url(#v201-edc561ac-a1d6-439f-a08b-594ef0214ee3)" /></g></g></g></svg><text x="88" y="47" font-family="Segoe UI, Helvetica Neue, Arial, sans-serif" font-size="15" font-weight="600" fill="#1d1a16">Event Grid</text><rect x="198" y="18" width="156.4" height="46" rx="23" fill="#ffffff" stroke="#e0d9cc"/><svg x="207" y="26" width="30" height="30" viewBox="0 0 18 18"><defs><linearGradient id="v202-bbd02878-309a-4490-8196-946338d0f593" x1="8.995" y1="10.299" x2="8.995" y2="13.199" gradientUnits="userSpaceOnUse"><stop offset="0" stop-color="#005ba1" /><stop offset="0.258" stop-color="#00589d" /><stop offset="0.525" stop-color="#004f90" /><stop offset="0.796" stop-color="#003f7c" /><stop offset="1" stop-color="#003067" /></linearGradient></defs><g><g id="v202-b532e600-3623-4be6-9fa6-30d05fff56b1"><polygon points="13.387 7.4 13.382 7.396 13.382 7.384 13.363 7.384 8.997 4.405 4.631 7.384 4.612 7.384 4.612 7.396 4.606 7.4 4.612 7.4 4.612 13.201 13.382 13.201 13.382 7.4 13.387 7.4" fill="#50e6ff" /><path d="M4.606,7.4c0-.1.008,5.681.008,5.8L8.995,10.3Z" fill="#32bedd" /><path d="M13.384,7.4,8.995,10.3,13.376,13.2C13.376,13.083,13.384,7.3,13.384,7.4Z" fill="#198ab3" /><polygon points="8.995 10.299 4.614 13.194 4.614 13.199 13.376 13.199 13.376 13.194 8.995 10.299" fill="url(#v202-bbd02878-309a-4490-8196-946338d0f593)" /><g><path d="M1.072,1.43h1.29a0,0,0,0,1,0,0v3.6a.286.286,0,0,1-.286.286H.786A.286.286,0,0,1,.5,5.035V2A.572.572,0,0,1,1.072,1.43Z" fill="#999" /><path d="M1.072,1.43h1.29a0,0,0,0,1,0,0v3.6a.286.286,0,0,1-.286.286H.786A.286.286,0,0,1,.5,5.035V2A.572.572,0,0,1,1.072,1.43Z" fill="#999" opacity="0.5" /></g><g><path d="M15.638,1.43h1.29A.572.572,0,0,1,17.5,2V5.035a.286.286,0,0,1-.286.286h-1.29a.286.286,0,0,1-.286-.286V1.43A0,0,0,0,1,15.638,1.43Z" fill="#999" /><path d="M15.638,1.43h1.29A.572.572,0,0,1,17.5,2V5.035a.286.286,0,0,1-.286.286h-1.29a.286.286,0,0,1-.286-.286V1.43A0,0,0,0,1,15.638,1.43Z" fill="#999" opacity="0.5" /></g><path d="M8.66-6.163H9.907a0,0,0,0,1,0,0v17a0,0,0,0,1,0,0H8.66a.567.567,0,0,1-.567-.567V-5.6A.567.567,0,0,1,8.66-6.163Z" transform="translate(11.337 -6.663) rotate(90)" fill="#949494" /><g><path d="M.786,12.679h1.29a.286.286,0,0,1,.286.286v3.6a0,0,0,0,1,0,0H1.072A.572.572,0,0,1,.5,16V12.965A.286.286,0,0,1,.786,12.679Z" fill="#999" /><path d="M.786,12.679h1.29a.286.286,0,0,1,.286.286v3.6a0,0,0,0,1,0,0H1.072A.572.572,0,0,1,.5,16V12.965A.286.286,0,0,1,.786,12.679Z" fill="#999" opacity="0.5" /></g><g><path d="M15.924,12.679h1.29a.286.286,0,0,1,.286.286V16a.572.572,0,0,1-.572.572h-1.29a0,0,0,0,1,0,0v-3.6A.286.286,0,0,1,15.924,12.679Z" fill="#999" /><path d="M15.924,12.679h1.29a.286.286,0,0,1,.286.286V16a.572.572,0,0,1-.572.572h-1.29a0,0,0,0,1,0,0v-3.6A.286.286,0,0,1,15.924,12.679Z" fill="#999" opacity="0.5" /></g><path d="M8.66,7.163H9.907a0,0,0,0,1,0,0v17a0,0,0,0,1,0,0H8.66a.567.567,0,0,1-.567-.567V7.73A.567.567,0,0,1,8.66,7.163Z" transform="translate(-6.663 24.663) rotate(-90)" fill="#949494" /></g></g></svg><text x="246" y="47" font-family="Segoe UI, Helvetica Neue, Arial, sans-serif" font-size="15" font-weight="600" fill="#1d1a16">Service Bus</text><rect x="364.4" y="18" width="190" height="46" rx="23" fill="#ffffff" stroke="#e0d9cc"/><svg x="373.4" y="26" width="30" height="30" viewBox="0 0 18 18"><defs><linearGradient id="v203-b403aca7-f387-4434-96b4-ae157edc835f" x1="-175.993" y1="-343.723" x2="-175.993" y2="-359.232" gradientTransform="translate(212.573 370.548) scale(1.156 1.029)" gradientUnits="userSpaceOnUse"><stop offset="0" stop-color="#fea11b" /><stop offset="0.284" stop-color="#fea51a" /><stop offset="0.547" stop-color="#feb018" /><stop offset="0.8" stop-color="#ffc314" /><stop offset="1" stop-color="#ffd70f" /></linearGradient></defs><g><path d="M2.37,7.475H3.2a.267.267,0,0,1,.267.267v6.148a.533.533,0,0,1-.533.533H2.1a0,0,0,0,1,0,0V7.741a.267.267,0,0,1,.267-.267Z" transform="translate(12.507 16.705) rotate(134.919)" fill="#50e6ff" /><path d="M2.325,3.6h.833a.267.267,0,0,1,.267.267v6.583a0,0,0,0,1,0,0H2.591a.533.533,0,0,1-.533-.533V3.865A.267.267,0,0,1,2.325,3.6Z" transform="translate(5.759 0.114) rotate(44.919)" fill="#1490df" /></g><g><path d="M14.53,7.475h.833a.533.533,0,0,1,.533.533v6.148a.267.267,0,0,1-.267.267H14.8a.267.267,0,0,1-.267-.267V7.475a0,0,0,0,1,0,0Z" transform="translate(12.223 -7.555) rotate(45.081)" fill="#50e6ff" /><path d="M15.108,3.6h.833a0,0,0,0,1,0,0v6.583a.267.267,0,0,1-.267.267h-.833a.267.267,0,0,1-.267-.267V4.131a.533.533,0,0,1,.533-.533Z" transform="translate(31.022 1.222) rotate(135.081)" fill="#1490df" /></g><path d="M8.459,9.9H4.87a.193.193,0,0,1-.2-.181.166.166,0,0,1,.018-.075L8.991,1.13a.206.206,0,0,1,.186-.106h4.245a.193.193,0,0,1,.2.181.165.165,0,0,1-.035.1L8.534,7.966h4.928a.193.193,0,0,1,.2.181.176.176,0,0,1-.052.122L5.421,16.788c-.077.046-.624.5-.356-.189h0Z" fill="url(#v203-b403aca7-f387-4434-96b4-ae157edc835f)" /></svg><text x="412.4" y="47" font-family="Segoe UI, Helvetica Neue, Arial, sans-serif" font-size="15" font-weight="600" fill="#1d1a16">Azure Functions</text><text x="760" y="47" font-family="Segoe UI, Helvetica Neue, Arial, sans-serif" font-size="13" font-weight="700" fill="#1a4b61" text-anchor="end" letter-spacing="2">COMPARISON</text><rect x="40" y="86" width="720" height="50" rx="10" fill="#1f7fa8"/><text x="54" y="118" font-family="Segoe UI, Helvetica Neue, Arial, sans-serif" font-size="15" font-weight="700" fill="#ffffff">Service</text><text x="244" y="118" font-family="Segoe UI, Helvetica Neue, Arial, sans-serif" font-size="15" font-weight="700" fill="#ffffff">Model</text><text x="509" y="118" font-family="Segoe UI, Helvetica Neue, Arial, sans-serif" font-size="15" font-weight="700" fill="#ffffff">Best for</text><line x1="40" y1="192" x2="760" y2="192" stroke="#a2c8d8" stroke-width="1"/><text x="54" y="170" font-family="Segoe UI, Helvetica Neue, Arial, sans-serif" font-size="14" font-weight="700" fill="#1a4b61">Storage Queues</text><text x="244" y="170" font-family="Segoe UI, Helvetica Neue, Arial, sans-serif" font-size="14" font-weight="400" fill="#1d1a16">Simple queue</text><text x="509" y="170" font-family="Segoe UI, Helvetica Neue, Arial, sans-serif" font-size="14" font-weight="400" fill="#1d1a16">Cheap buffering (webhook → pro…</text><rect x="40" y="192" width="720" height="56" fill="#d0e0e7" opacity=".55"/><line x1="40" y1="248" x2="760" y2="248" stroke="#a2c8d8" stroke-width="1"/><text x="54" y="226" font-family="Segoe UI, Helvetica Neue, Arial, sans-serif" font-size="14" font-weight="700" fill="#1a4b61">Service Bus queues</text><text x="244" y="226" font-family="Segoe UI, Helvetica Neue, Arial, sans-serif" font-size="14" font-weight="400" fill="#1d1a16">Brokered messaging</text><text x="509" y="226" font-family="Segoe UI, Helvetica Neue, Arial, sans-serif" font-size="14" font-weight="400" fill="#1d1a16">Commands, ordered processing (…</text><line x1="40" y1="304" x2="760" y2="304" stroke="#a2c8d8" stroke-width="1"/><text x="54" y="282" font-family="Segoe UI, Helvetica Neue, Arial, sans-serif" font-size="14" font-weight="700" fill="#1a4b61">Service Bus topics</text><text x="244" y="282" font-family="Segoe UI, Helvetica Neue, Arial, sans-serif" font-size="14" font-weight="400" fill="#1d1a16">Pub/sub</text><text x="509" y="282" font-family="Segoe UI, Helvetica Neue, Arial, sans-serif" font-size="14" font-weight="400" fill="#1d1a16">One event, many subscribers wi…</text><rect x="40" y="304" width="720" height="56" fill="#d0e0e7" opacity=".55"/><line x1="40" y1="360" x2="760" y2="360" stroke="#a2c8d8" stroke-width="1"/><text x="54" y="338" font-family="Segoe UI, Helvetica Neue, Arial, sans-serif" font-size="14" font-weight="700" fill="#1a4b61">Event Grid</text><text x="244" y="338" font-family="Segoe UI, Helvetica Neue, Arial, sans-serif" font-size="14" font-weight="400" fill="#1d1a16">Reactive events</text><text x="509" y="338" font-family="Segoe UI, Helvetica Neue, Arial, sans-serif" font-size="14" font-weight="400" fill="#1d1a16">&quot;Something happened&quot; (blob cre…</text><line x1="40" y1="416" x2="760" y2="416" stroke="#a2c8d8" stroke-width="1"/><text x="54" y="394" font-family="Segoe UI, Helvetica Neue, Arial, sans-serif" font-size="14" font-weight="700" fill="#1a4b61">Event Hubs</text><text x="244" y="394" font-family="Segoe UI, Helvetica Neue, Arial, sans-serif" font-size="14" font-weight="400" fill="#1d1a16">Streaming</text><text x="509" y="394" font-family="Segoe UI, Helvetica Neue, Arial, sans-serif" font-size="14" font-weight="400" fill="#1d1a16">Telemetry at massive scale</text></svg>